<svg viewBox="0 0 2453.16 581.4" xmlns="http://www.w3.org/2000/svg"><g fill="#fff"><path d="m521.61 304.14a22.32 22.32 0 0 1 -22.32 22.32h-120.38a33 33 0 0 1 -.87-66 48 48 0 0 1 89.05.17 33 33 0 0 1 34.31 21.24 22.32 22.32 0 0 1 20.21 22.27z" opacity=".5"/><path d="m2301.26 190.69a22.32 22.32 0 0 1 -22.32 22.31h-120.38a33 33 0 0 1 -.87-66 48 48 0 0 1 89.05.17 33 33 0 0 1 34.31 21.24 22.32 22.32 0 0 1 20.21 22.28z" opacity=".5"/><path d="m1942.92 250.45a15.35 15.35 0 0 1 -15.34 15.35h-82.75a22.67 22.67 0 0 1 -.59-45.34 33 33 0 0 1 61.22.11 22.69 22.69 0 0 1 23.59 14.6 15.34 15.34 0 0 1 13.87 15.28z" opacity=".5"/><path d="m349.08 537a44.35 44.35 0 0 1 -44.35 44.36h-239.19a65.53 65.53 0 0 1 -1.72-131 95.36 95.36 0 0 1 176.95.33 65.59 65.59 0 0 1 68.18 42.21 44.34 44.34 0 0 1 40.13 44.1z" opacity=".82"/><path d="m494.27 475a44.35 44.35 0 0 0 44.35 44.36h239.19a65.53 65.53 0 0 0 1.72-131 95.36 95.36 0 0 0 -176.95.33 65.59 65.59 0 0 0 -68.18 42.21 44.34 44.34 0 0 0 -40.13 44.1z"/><path d="m1069.54 441.54a44.35 44.35 0 0 1 -44.35 44.36h-239.19a65.53 65.53 0 0 1 -1.72-131 95.36 95.36 0 0 1 176.95.33 65.59 65.59 0 0 1 68.18 42.21 44.34 44.34 0 0 1 40.13 44.1z"/><path d="m1403 468.8a57.3 57.3 0 0 1 -57.29 57.31h-309a84.66 84.66 0 0 1 -2.22-169.3 123.2 123.2 0 0 1 228.6.43 84.74 84.74 0 0 1 88.08 54.53 57.28 57.28 0 0 1 51.83 57.03z"/><path d="m1580.57 458.29a44.35 44.35 0 0 1 -44.35 44.36h-239.22a65.53 65.53 0 0 1 -1.72-131 95.36 95.36 0 0 1 176.95.33 65.59 65.59 0 0 1 68.18 42.21 44.34 44.34 0 0 1 40.16 44.1z"/><path d="m1836.92 438.19a44.35 44.35 0 0 1 -44.35 44.36h-239.19a65.53 65.53 0 0 1 -1.72-131 95.36 95.36 0 0 1 176.95.33 65.59 65.59 0 0 1 68.18 42.12 44.34 44.34 0 0 1 40.13 44.19z"/><path d="m1666.82 501.51a44.35 44.35 0 0 1 -44.35 44.36h-239.19a65.53 65.53 0 0 1 -1.72-131 95.36 95.36 0 0 1 176.95.33 65.59 65.59 0 0 1 68.18 42.21 44.34 44.34 0 0 1 40.13 44.1z"/><path d="m332.32 455.49c0 16.79 13.07 30.41 29.18 30.41h157.4c23.82 0 43.12-20.12 43.12-44.92 0-24.42-18.7-44.28-42-44.9-9.3-24-31.84-40.86-58.17-40.86s-49 17-58.26 41.09a41.31 41.31 0 0 0 -4.47-.24c-18.5 0-34.27 12.13-40.4 29.17-14.81 1.44-26.4 14.43-26.4 30.25z" opacity=".75"/><path d="m318.92 520.83c0 16.79 13.07 30.41 29.18 30.41h157.39c23.82 0 43.12-20.12 43.12-44.92 0-24.42-18.7-44.28-42-44.9-9.3-24-31.84-40.86-58.17-40.86s-49 17-58.26 41.09a41.31 41.31 0 0 0 -4.47-.24c-18.5 0-34.27 12.13-40.4 29.17-14.8 1.42-26.39 14.42-26.39 30.25z" opacity=".75"/><path d="m798.11 424.78c0 24.5 19.06 44.36 42.57 44.36h229.62c34.75 0 62.91-29.35 62.91-65.54 0-35.62-27.28-64.59-61.26-65.51-13.56-35-46.45-59.61-84.87-59.61s-71.52 24.81-85 59.94a60.26 60.26 0 0 0 -6.52-.35c-27 0-50 17.7-58.93 42.56-21.63 2.12-38.52 21.08-38.52 44.15z" opacity=".75"/><path d="m1609.05 441.54c0 24.5 19.06 44.36 42.57 44.36h229.61c34.75 0 62.91-29.35 62.91-65.54 0-35.62-27.28-64.59-61.26-65.51-13.56-35-46.45-59.61-84.87-59.61s-71.52 24.81-85 59.94a60.26 60.26 0 0 0 -6.52-.35c-27 0-50 17.7-58.93 42.56-21.56 2.12-38.51 21.07-38.51 44.15z" opacity=".75"/><path d="m298 77.14a23.39 23.39 0 0 1 -23.38 23.39h-126.13a34.55 34.55 0 0 1 -.91-69.1 50.28 50.28 0 0 1 93.3.17 34.58 34.58 0 0 1 35.95 22.26 23.38 23.38 0 0 1 21.17 23.28z" opacity=".5"/><path d="m864.31 194.43a23.39 23.39 0 0 1 -23.38 23.39h-126.12a34.55 34.55 0 0 1 -.91-69.1 50.28 50.28 0 0 1 93.3.17 34.58 34.58 0 0 1 35.95 22.26 23.38 23.38 0 0 1 21.16 23.28z" opacity=".5"/><path d="m956.92 236.18a16 16 0 0 0 16 16h86.18a23.61 23.61 0 0 0 .62-47.22 34.36 34.36 0 0 0 -63.76.12 23.63 23.63 0 0 0 -24.57 15.21 16 16 0 0 0 -14.47 15.89z" opacity=".2"/><path d="m1521.59 248.87a16 16 0 0 0 16 16h86.18a23.61 23.61 0 0 0 .62-47.22 34.36 34.36 0 0 0 -63.76.12 23.63 23.63 0 0 0 -24.58 15.23 16 16 0 0 0 -14.46 15.87z" opacity=".5"/><path d="m155.82 329.17a16 16 0 0 0 16 16h86.18a23.61 23.61 0 0 0 .62-47.22 34.36 34.36 0 0 0 -63.76.12 23.63 23.63 0 0 0 -24.57 15.21 16 16 0 0 0 -14.47 15.89z" opacity=".5"/><path d="m857.61 372a23.39 23.39 0 0 1 -23.38 23.39h-126.12a34.55 34.55 0 0 1 -.91-69.1 50.28 50.28 0 0 1 93.3.17 34.58 34.58 0 0 1 35.95 22.26 23.38 23.38 0 0 1 21.16 23.28z" opacity=".5"/><path d="m1397.12 372a23.39 23.39 0 0 1 -23.38 23.39h-126.12a34.55 34.55 0 0 1 -.91-69.1 50.28 50.28 0 0 1 93.3.17 34.58 34.58 0 0 1 35.99 22.29 23.38 23.38 0 0 1 21.12 23.25z" opacity=".5"/><path d="m1589.81 388.78a23.39 23.39 0 0 1 -23.38 23.39h-126.13a34.55 34.55 0 0 1 -.91-69.1 50.28 50.28 0 0 1 93.3.17 34.58 34.58 0 0 1 35.95 22.26 23.38 23.38 0 0 1 21.17 23.28z" opacity=".5"/><path d="m2125.57 451.15a44.35 44.35 0 0 1 -44.35 44.36h-239.22a65.53 65.53 0 0 1 -1.72-131 95.36 95.36 0 0 1 176.95.33 65.59 65.59 0 0 1 68.21 42.16 44.34 44.34 0 0 1 40.13 44.15z"/><path d="m1914.38 413.44c0 19 14.82 34.49 33.1 34.49h178.52c27 0 48.91-22.81 48.91-51 0-27.69-21.21-50.22-47.63-50.93-10.54-27.18-36.11-46.35-66-46.35s-55.6 19.29-66.08 46.6a46.85 46.85 0 0 0 -5.07-.27c-21 0-38.87 13.76-45.82 33.09-16.78 1.69-29.93 16.43-29.93 34.37z" opacity=".75"/><path d="m1958 490.67c0 19.57 15.23 35.43 34 35.43h183.41c27.76 0 50.25-23.44 50.25-52.35 0-28.45-21.79-51.6-48.94-52.33-10.83-27.92-37.1-47.62-67.79-47.62s-57.13 19.82-67.89 47.88a48.13 48.13 0 0 0 -5.2-.28c-21.56 0-39.94 14.14-47.07 34-17.24 1.7-30.77 16.84-30.77 35.27z" opacity=".75"/><path d="m2453.16 372a23.39 23.39 0 0 1 -23.38 23.39h-126.13a34.55 34.55 0 0 1 -.91-69.1 50.28 50.28 0 0 1 93.3.17 34.58 34.58 0 0 1 35.96 22.29 23.38 23.38 0 0 1 21.16 23.25z" opacity=".5"/><path d="m618.83 387.22h1364.52v118.79h-1364.52z"/></g></svg>