<svg xmlns="http://www.w3.org/2000/svg" xmlns:xlink="http://www.w3.org/1999/xlink" viewBox="0 0 1130.69 245.37"><defs><style>.cls-1{fill:#fff19f;}.cls-2{fill:#f3e39d;}.cls-3{fill:#fddec9;}.cls-4{fill:#f1d2c2;}.cls-5{fill:#ffcf4a;}.cls-6{fill:#fcb514;}.cls-7{fill:#fff;}.cls-8{fill:#5c4b43;}.cls-9{fill:#aa9c94;}.cls-10{fill:#e5e4de;}.cls-11{fill:#d2d1cd;}.cls-12{fill:#fffdf0;}.cls-13{fill:#191919;}.cls-14{fill:#3b2512;}.cls-15,.cls-47{fill:#d7d7d7;}.cls-16{fill:#c0272d;}.cls-17{fill:#ec1e27;}.cls-18{fill:#efe093;}.cls-19{fill:#fff7d2;}.cls-20{fill:#f3ebcc;}.cls-21{fill:#886748;}.cls-22{fill:#664b35;}.cls-23,.cls-28,.cls-33,.cls-36,.cls-69{fill:none;}.cls-23{stroke:#e1d8bc;}.cls-23,.cls-28,.cls-33,.cls-36,.cls-68,.cls-69{stroke-miterlimit:10;}.cls-23,.cls-33,.cls-69{stroke-width:2px;}.cls-24{fill:#f2f2f2;}.cls-25{fill:#ef5253;}.cls-26{fill:#d84f56;}.cls-27{fill:#26180f;}.cls-28{stroke:#000;}.cls-28,.cls-68{stroke-width:4px;}.cls-29{fill:url(#linear-gradient);}.cls-30{fill:#efefef;}.cls-31{font-size:12.37px;font-family:UniversalSerif, Universal Serif;}.cls-31,.cls-45{fill:#d3d3d3;}.cls-32{fill:#eaeae9;}.cls-33{stroke:#ffcf4a;}.cls-34{fill:#f37b58;}.cls-35{fill:#e2745a;}.cls-36{stroke:#e2745a;stroke-width:5px;}.cls-37{fill:#8fc63e;}.cls-38{fill:#80ad40;}.cls-39{fill:#b1d254;}.cls-40{fill:#e5e5e4;}.cls-41{fill:#ddd9cf;}.cls-42{fill:#d83f3f;}.cls-43{fill:#715d55;}.cls-44{fill:#ef4f4e;}.cls-46{fill:#ffe8b5;}.cls-47{opacity:0.43;}.cls-48{fill:#cccbcb;}.cls-49{fill:#ececea;}.cls-50{fill:#e8553a;}.cls-51{fill:#40b5d0;}.cls-52{fill:#ffe75f;}.cls-53{fill:#83cff0;}.cls-54,.cls-61{fill:#75b7ce;}.cls-55{fill:#f1e8d2;}.cls-56{fill:#fff9e6;}.cls-57{fill:#dff2f8;}.cls-58{fill:#d1e3e8;}.cls-59{fill:#eed9b9;}.cls-60{fill:#dddddc;opacity:0.33;}.cls-61{opacity:0.52;}.cls-62{fill:#282827;}.cls-63{fill:#3f4040;}.cls-64{fill:#4f4f4f;}.cls-65{fill:#7a441c;}.cls-66{fill:#5f3313;}.cls-67{opacity:0.4;}.cls-68{fill:#7fd1ec;stroke:#fff;}.cls-69{stroke:#28aae1;opacity:0.3;}.cls-70{fill:#ea9d22;}.cls-71{fill:#ffe161;}.cls-72{fill:#e74525;}</style><linearGradient id="linear-gradient" x1="1040.37" y1="190.13" x2="1040.37" y2="221.93" gradientTransform="translate(-24.75 14.94) rotate(-3.96)" gradientUnits="userSpaceOnUse"><stop offset="0" stop-color="#fff" stop-opacity="0"/><stop offset="0.27" stop-color="#d4f0f9" stop-opacity="0.31"/><stop offset="0.63" stop-color="#a0dff3" stop-opacity="0.68"/><stop offset="0.88" stop-color="#80d3ef" stop-opacity="0.91"/><stop offset="1" stop-color="#73cfed"/></linearGradient></defs><title>All-cha</title><g id="Layer_2" data-name="Layer 2"><g id="Layer_1-2" data-name="Layer 1"><path class="cls-1" d="M35.57,129.18S9.4,197.41,0,205.11c0,0,45.16,17.29,88.22,10.66,0,0-18-51-16.12-81.88Z"/><path class="cls-2" d="M39.1,125s-23.89,74.09-32,82.64c0,0,37.34,17.28,73.59,8.92,0,0-13.65-54.32-11.15-87.54Z"/><path class="cls-3" d="M16,153.69s.49-8.7,5-14.95c4.66-6.51,8.65-11.5,15.35-13.24,1.25-.32,2.51-.61,3.75-.85l27.64,4.52s.68.65,1.79,1.87c5.1,5.57,19.45,23.05,21.18,45l-7.16,3.74s-4.78-16.11-14.19-26.07c0,0,4.15,36.17,2.65,72.38,0,0,4.24,3,3.9,5.77l-17.06-2s-3.29-28.65-7.45-35.16l-10.1-1.21s-13,20.34-16.23,32.32l-16.37-2a5.64,5.64,0,0,1,5.07-4S26.18,166.21,36.15,142c0,0,1.1-3-6.24,2.08-3.47,2.41-5.67,6-4.38,10.07Z"/><path class="cls-4" d="M55.45,134c-9.26-1.87-17.82-3.65-23.88-7.11,1.58-.53,3.17-1,4.77-1.42,1.25-.32,2.51-.61,3.75-.85l27.64,4.52s.68.65,1.79,1.87c.7.77,1.58,1.76,2.57,3A40.68,40.68,0,0,1,55.45,134Z"/><path class="cls-4" d="M17.85,90.25S10.38,88.73,10,97.52s12.46,11,12.46,11L22.42,94.4Z"/><polygon class="cls-4" points="71.44 133.47 70.81 135.87 70.95 155.31 68.15 152.15 70.26 131.56 71.44 133.47"/><path class="cls-5" d="M71.75,129.53l-2,6.21-9.11-3.56.6-5S67.7,126.49,71.75,129.53Z"/><path class="cls-4" d="M97.11,99.73s7.61.28,5.88,8.9-14.71,7.78-14.71,7.78l3.41-13.72Z"/><path class="cls-3" d="M16.37,85.91s5.56,15.5,6.08,23S34.74,127.31,52.32,128,85,129.09,89.14,115.45,99.47,94.08,99.47,94.08s8.06-23.06,1.78-41.47S74.59,30.35,64.19,28.75,33.09,31.74,25,43.49,15.15,69.51,16.37,85.91Z"/><path class="cls-4" d="M99.72,92s8.06-23.06,1.78-41.47S74.84,28.26,64.43,26.66s-31.09,3-39.21,14.74-9.82,26-8.6,42.42c0,0,1.13,3.14,2.41,7.28a20.5,20.5,0,0,0,17.78-8.64,20.48,20.48,0,0,0,30.45,3.72A20.56,20.56,0,0,0,81,88.46a20.51,20.51,0,0,0,13.58,11.89A52.83,52.83,0,0,1,99.72,92Z"/><path class="cls-5" d="M72,226.09l-13.65-.18.49,3.91,17.06,2S76.25,229.07,72,226.09Z"/><polygon class="cls-6" points="75.93 231.15 58.84 229.37 58.85 229.81 75.91 231.85 75.93 231.15"/><path class="cls-5" d="M13.25,219.06l13.31,3-1.4,3.68-17.06-2S8.44,221,13.25,219.06Z"/><polygon class="cls-6" points="8.25 223.06 25.28 225.36 25.17 225.79 8.1 223.75 8.25 223.06"/><polygon class="cls-7" points="72.24 218.71 58.11 224.05 57.85 222.19 72.28 216.71 72.24 218.71"/><polygon class="cls-7" points="72.14 222.52 56.9 215.96 57.23 218.02 72.08 224.39 72.14 222.52"/><polygon class="cls-7" points="15.06 213.06 26.88 221.14 27.54 219.48 15.47 211.22 15.06 213.06"/><polygon class="cls-7" points="14.3 216.59 29.8 213.96 29.04 215.78 13.95 218.33 14.3 216.59"/><path class="cls-4" d="M19.11,197s9,4.69,15.94,6.44l2-4-16.75-6.92Z"/><path class="cls-4" d="M17.43,149.3l1.69-.8-.6-1,.87-1.42,1.11,1.77,1.08-.51,2.75,1.23,0,2,.94.55A25.3,25.3,0,0,0,23,155.25l-7.4-2.86S16.27,151.23,17.43,149.3Z"/><rect class="cls-7" x="12.33" y="140.57" width="6.31" height="7.37" rx="3.16" ry="3.16" transform="translate(-60.39 20.59) rotate(-25.4)"/><rect class="cls-8" x="17.35" y="146.7" width="2.1" height="17.19" transform="translate(-64.84 22.91) rotate(-25.4)"/><rect class="cls-9" x="19.25" y="145.79" width="2.1" height="17.19" transform="translate(-64.27 23.64) rotate(-25.4)"/><rect class="cls-8" x="21.15" y="144.89" width="2.1" height="17.19" transform="translate(-63.7 24.37) rotate(-25.4)"/><rect class="cls-10" x="13.29" y="145.86" width="2.1" height="1.75" transform="translate(-61.56 20.34) rotate(-25.4)"/><rect class="cls-11" x="15.19" y="144.96" width="2.1" height="1.75" transform="translate(-60.99 21.07) rotate(-25.4)"/><polygon class="cls-12" points="26.49 167.4 26.99 161.11 21.3 163.82 26.49 167.4"/><rect class="cls-10" x="17.09" y="144.05" width="2.1" height="1.75" transform="translate(-60.42 21.8) rotate(-25.4)"/><circle class="cls-8" cx="22.09" cy="163.05" r="1.05" transform="translate(-67.81 25.24) rotate(-25.4)"/><circle class="cls-9" cx="23.99" cy="162.15" r="1.05" transform="translate(-67.24 25.97) rotate(-25.4)"/><circle class="cls-8" cx="25.89" cy="161.25" r="1.05" transform="translate(-66.67 26.7) rotate(-25.4)"/><polygon class="cls-13" points="26.49 167.4 26.64 165.55 24.96 166.35 26.49 167.4"/><path class="cls-4" d="M56.07,210s10.45,3.33,15.67,3.85l0-4.35L55,205.83Z"/><polygon class="cls-3" points="15.04 152.44 21.05 149.61 23.8 150.84 23.78 152.88 25.64 153.97 25.55 155.91 26.74 157.25 25.79 158.73 19.8 161.35 17.33 159.91 18.01 158.3 15.81 157.32 16.89 155.7 14.62 154.59 15.04 152.44"/><circle class="cls-14" cx="40.74" cy="94.83" r="6.31" transform="translate(-58.25 124.02) rotate(-83.18)"/><circle class="cls-14" cx="72.43" cy="98.62" r="6.31" transform="translate(-34.09 158.83) rotate(-83.18)"/><path class="cls-4" d="M33.51,149.42l.51-1.35s18.54-7.32,25.58-16l.74-3.8h4.59l-24.47,22Z"/><path class="cls-5" d="M26.65,168.38s33.67,7.91,44.55,8.51l.24,7.83S32.61,174.66,26.34,171Z"/><path class="cls-6" d="M26.63,168.48s31.84,9,44.65,9.47l-.14-2.12-44.37-8.48Z"/><path class="cls-7" d="M60.65,132.18a73.42,73.42,0,0,1-27.14,17.24s-6,17.3-7.51,18.53c0,0,0,.35.65.43s40.75,9.11,44.48,8.32c0,0,1.12.31.24-1.21s-2.2-37.71-1.6-39.76S60.65,132.18,60.65,132.18Z"/><path class="cls-7" d="M26.36,170.82S19.69,185.21,16,192.19c0,0,32.71,15.92,58.18,18.61,0,0-2.92-17-2.88-26.13Z"/><polygon class="cls-15" points="25.3 196.58 29.97 187.86 28.76 198 25.3 196.58"/><polygon class="cls-15" points="36.93 201.16 41.25 190.97 39.91 202.23 36.93 201.16"/><polygon class="cls-15" points="51.84 194 52.93 206.29 49.23 205.27 51.84 194"/><circle class="cls-16" cx="54.56" cy="114.85" r="3.91" transform="translate(-65.95 155.39) rotate(-83.18)"/><circle class="cls-16" cx="59.96" cy="114.37" r="2.79" transform="translate(-60.72 160.33) rotate(-83.18)"/><circle class="cls-16" cx="49.14" cy="113.08" r="2.79" transform="translate(-68.97 148.45) rotate(-83.18)"/><rect class="cls-16" x="49.27" y="110.96" width="11.18" height="2.79" transform="translate(13.73 -5.72) rotate(6.82)"/><path class="cls-16" d="M47.89,115.57s3.15,2.8,6.2,3.16,6.5-1.64,6.5-1.64l-2.36-2.37L48,113.22Z"/><path class="cls-17" d="M47.81,115.46v.07l.08,0h0s3.15,2.8,6.2,3.16,6.5-1.64,6.5-1.64h0a2.78,2.78,0,0,0,.58-.21c-.18-.11-3.79-2.39-6.76-2.71A15.14,15.14,0,0,0,47.81,115.46Z"/><polygon class="cls-15" points="64.39 209.2 64.79 196.61 67.38 209.78 64.39 209.2"/><circle class="cls-1" cx="27.36" cy="46.4" r="17.65" transform="translate(-21.95 68.06) rotate(-83.18)"/><circle class="cls-1" cx="68.87" cy="30.15" r="15.56" transform="translate(30.76 94.95) rotate(-83.18)"/><circle class="cls-1" cx="89.2" cy="40.79" r="17.27" transform="translate(38.1 124.51) rotate(-83.18)"/><circle class="cls-1" cx="84.2" cy="61.79" r="15.56" transform="translate(12.85 138.06) rotate(-83.18)"/><circle class="cls-1" cx="54.14" cy="66.99" r="20.5" transform="translate(-18.8 112.8) rotate(-83.18)"/><circle class="cls-1" cx="45.63" cy="32.72" r="15.94" transform="translate(7.72 74.14) rotate(-83.18)"/><circle class="cls-1" cx="59.97" cy="47.05" r="15.94" transform="translate(6.14 101.01) rotate(-83.18)"/><circle class="cls-1" cx="20.53" cy="66.79" r="20.5" transform="translate(-48.23 79.25) rotate(-83.18)"/><circle class="cls-1" cx="100.38" cy="76.73" r="20.5" transform="translate(12.28 167.29) rotate(-83.18)"/><circle class="cls-1" cx="77.76" cy="64.46" r="20.5" transform="translate(4.52 134.02) rotate(-83.18)"/><circle class="cls-1" cx="96.11" cy="58.26" r="20.5" transform="translate(16.31 137.4) rotate(-75.98)"/><path class="cls-18" d="M107.7,67.24A11.71,11.71,0,0,0,95.25,56.32c-.33,0-.66.06-1,.11a14.15,14.15,0,1,0-8.65,17,11.71,11.71,0,0,0,22.09-6.14Z"/><path class="cls-19" d="M80.12,185,96,179.15s-2.29,42.82,6.9,45.69l-15,7.39S76.43,227.68,80.12,185Z"/><path class="cls-19" d="M89.13,231.83l15.32-6.91s3.71-1.75,5.76,1.32l.92,1.21-15.44,7.83-.51-1.83S93.76,228,89.13,231.83Z"/><path class="cls-20" d="M85.36,229.8s2.33,4.16,5.41,2.06l14.4-7.11s-3.39.66-4.79-2.33Z"/><path class="cls-5" d="M108.58,60.88l-2.27-10L104,40.8l-1.83.41,1.24,5.48L83.1,51.3a.94.94,0,0,0,.41,1.83l20.35-4.61.41,1.83L83.16,55.12a.94.94,0,0,0,.41,1.83l21.12-4.78L105.1,54,84.75,58.6a.94.94,0,1,0,.41,1.83l20.35-4.61,1.24,5.48Z"/><path class="cls-21" d="M103.89,63.86l3.79-.86a3.74,3.74,0,1,0,1.9-6.19l-7.69,1.74h0a2.81,2.81,0,0,0-1.41.8,8.65,8.65,0,0,1-4.3,2.41,8.4,8.4,0,0,1-4-.06L92,61.64l-.44-.15A7.49,7.49,0,0,1,90.47,61a8.39,8.39,0,0,1-2.84-12.56,8.56,8.56,0,0,1,1.27-1.36,8.4,8.4,0,0,1,3.57-1.77,8.62,8.62,0,0,1,4.92.33,2.81,2.81,0,0,0,1.62.11L106.69,44a3.74,3.74,0,1,0-4.38-4.77l-3.79.86a14.28,14.28,0,0,0-7.3-.27,13.64,13.64,0,0,0-6.39,3.38,9.31,9.31,0,0,0-1.29,1.35,14,14,0,0,0,4.91,21.69,9.3,9.3,0,0,0,1.74.66,13.64,13.64,0,0,0,7.23.3,14.34,14.34,0,0,0,5.78-2.79Q103.56,64.17,103.89,63.86Z"/><path class="cls-22" d="M90.19,66.94a9.29,9.29,0,0,1-1.74-.66l2-5.25a8.56,8.56,0,0,0,1.73.68Z"/><path class="cls-22" d="M87.62,48.47l-4.08-3.87a9.29,9.29,0,0,1,1.29-1.35l4.06,3.86A8.55,8.55,0,0,0,87.62,48.47Z"/><path class="cls-1" d="M105.73,70A11.71,11.71,0,0,0,93.28,59c-.33,0-.66.06-1,.11a14.15,14.15,0,1,0-8.65,17A11.71,11.71,0,0,0,105.73,70Z"/><path class="cls-18" d="M33.73,47.83A11.71,11.71,0,0,1,51.09,37.07a11.71,11.71,0,1,0-14,18.48A11.67,11.67,0,0,1,33.73,47.83Z"/><polygon class="cls-4" points="85.64 173.35 82.51 176.83 83.57 179.78 90.73 176.05 90.63 173.91 85.64 173.35"/><polygon class="cls-3" points="85.78 175.13 81.29 179.91 83.41 184.18 85.61 183.75 86.81 186.76 93.62 183.59 91.63 175.63 85.78 175.13"/><rect class="cls-4" x="84.95" y="179.63" width="4.35" height="4.35" transform="translate(-64.53 48.98) rotate(-23.18)"/><rect class="cls-3" x="85.78" y="180.46" width="2.69" height="2.69" transform="translate(-64.53 48.98) rotate(-23.18)"/><line class="cls-23" x1="82.44" y1="189.19" x2="93.48" y2="185.56"/><line class="cls-23" x1="82.33" y1="193.06" x2="93.37" y2="189.43"/><line class="cls-23" x1="82.22" y1="196.93" x2="93.26" y2="193.3"/><line class="cls-23" x1="82.12" y1="200.8" x2="93.15" y2="197.18"/><line class="cls-23" x1="82.35" y1="204.72" x2="87.87" y2="202.9"/><polygon class="cls-10" points="1016.08 123.03 1130.69 205.69 1123.94 178.19 1021.45 115.59 1016.08 123.03"/><polygon class="cls-24" points="1016.08 123.03 1130.69 205.69 1102.47 207.96 1010.71 130.48 1016.08 123.03"/><rect class="cls-8" x="994" y="114.39" width="36.24" height="11.01" transform="translate(322.87 870.7) rotate(-54.2)"/><rect class="cls-14" x="987.24" y="90.69" width="13.76" height="33.03" transform="translate(325.7 850.83) rotate(-54.2)"/><path class="cls-25" d="M1035.76,125.74s-13.82,76.72-22.13,86.67c0,0,50.78,9.11,94.58-6.43,0,0-29.09-49.87-33.23-82.59Z"/><path class="cls-26" d="M1038.62,120.66s-10.25,82.41-17,93c0,0,42.58,10.66,78.91-5.33,0,0-25.14-54.2-29.15-89.52Z"/><path class="cls-3" d="M1020.18,155.32s-1.23-9.21,2.22-16.66c3.59-7.75,6.77-13.78,13.44-16.94,1.25-.59,2.5-1.14,3.76-1.64l29.87-.77s.84.55,2.25,1.6c3.21,2.4,8.45,10.18,14.72,16.31,3.22,3.15,6.1,1.45,16.72-2.28l.92,7.81s-17.44,13.58-28,1.94c0,0,11.57,37.08,17.22,75.32,0,0,5,2.28,5.24,5.26l-18.29,1.27s-9.16-29.37-14.82-35.36l-10.83.75s-9.6,23.92-10.56,37.11l-17.54,1.21a6,6,0,0,1,4.52-5.19s2.32-58.67,7.92-86.07c0,0,.55-3.39-6.12,3.42-3.15,3.22-4.74,7.45-2.58,11.43Z"/><path class="cls-4" d="M1057.56,126.85c-10.08-.11-19.41-.27-26.45-2.68,1.55-.87,3.13-1.69,4.71-2.44,1.25-.59,2.5-1.14,3.76-1.64l29.87-.77s.84.55,2.25,1.6c.89.66,2,1.53,3.29,2.59A43.39,43.39,0,0,1,1057.56,126.85Z"/><path class="cls-4" d="M1009.42,88.47s-8.13-.11-6.73,9.17,15.26,9.07,15.26,9.07l-2.9-14.8Z"/><path class="cls-4" d="M1094.37,82.59s8-1.23,7.93,8.16-13.86,11.09-13.86,11.09l.83-15.06Z"/><path class="cls-4" d="M1037.78,120.85q-1,.42-1.93.88a19.78,19.78,0,0,0-7.21,5.87c3.94,2.77,9.37,8.87,9.37,8.87,0-10.13,5.86-15,5.86-15A15.08,15.08,0,0,0,1037.78,120.85Z"/><path class="cls-4" d="M1080.68,160.88l-44.9,3.11-1.5,10.44c-1,10.56-1.69,21.17-2.22,29.93l18.51-1.51c2.16-6.29,4-10.9,4-10.9l10.83-.75c1.66,1.76,3.63,5.53,5.57,10l18.77-1.53C1086.79,184.62,1083.37,170.87,1080.68,160.88Z"/><path class="cls-14" d="M1042.29,123.24s6.87,3.34,13,3.35l-4.17,9-12.85-1.36S1038.6,124.83,1042.29,123.24Z"/><path class="cls-8" d="M1028.25,125.51s6.47-8.32,16.66-5.28c0,0-5.81,4.9-5.86,15C1039,135.26,1032.13,127.49,1028.25,125.51Z"/><polygon class="cls-7" points="1035.6 161.38 1029.78 201.91 1090.95 196.93 1080.77 158.25 1035.6 161.38"/><polygon class="cls-15" points="1035.6 161.38 1033.16 178.43 1085.1 174.7 1082.91 166.39 1080.23 158.29 1035.6 161.38"/><path class="cls-4" d="M1071.73,120.92c-1.23-.92-2-1.45-2.21-1.57a5,5,0,0,0-1.75.26c-5.34,9.18-27.21,16.15-27.21,16.15,24,7.55,35.76-1.28,42.2-2.88a11.18,11.18,0,0,0,1.66-.53A98.66,98.66,0,0,0,1071.73,120.92Z"/><polygon class="cls-14" points="1039 134.51 1032.74 176.71 1085.54 172.93 1071.79 131.49 1045.15 132.21 1039 134.51"/><path class="cls-25" d="M1038.19,134s21.87-7,27.21-16.15c0,0,4.31-1.79,10.1,4s11.32,7.69,4.88,9.29S1062.18,141.59,1038.19,134Z"/><path class="cls-3" d="M1007,84.22s8.92,15.14,11,22.87,16.55,16.86,35.11,14.07,34.51-5.39,36.09-20.5,6.56-24.46,6.56-24.46,3.84-25.77-6.41-43.82-31.36-3.43-42.58-3-33-5.24-39.17,8.69S1002.46,67.28,1007,84.22Z"/><path class="cls-14" d="M1093.28,220l-14.34,2.53,1.29,4,18.29-1.27S1098.32,222.3,1093.28,220Z"/><polygon class="cls-27" points="1098.4 224.55 1080.14 226.09 1080.23 226.55 1098.52 225.29 1098.4 224.55"/><path class="cls-14" d="M1030.31,224.38l14.56.53-.73,4.14-18.29,1.27S1025.63,227.33,1030.31,224.38Z"/><polygon class="cls-27" points="1025.86 229.57 1044.16 228.58 1044.13 229.05 1025.84 230.32 1025.86 229.57"/><polygon class="cls-14" points="1092.05 212.24 1078.31 220.66 1077.66 218.76 1091.69 210.15 1092.05 212.24"/><polygon class="cls-14" points="1092.71 216.26 1075.42 212.43 1076.18 214.52 1093.01 218.23 1092.71 216.26"/><polygon class="cls-14" points="1031 217.74 1045 223.84 1045.36 221.97 1031.07 215.72 1031 217.74"/><polygon class="cls-14" points="1030.91 221.59 1046.63 215.74 1046.19 217.8 1030.88 223.48 1030.91 221.59"/><circle class="cls-14" cx="1034.32" cy="88.7" r="6.74" transform="translate(-3.66 71.64) rotate(-3.96)"/><circle class="cls-14" cx="1068.29" cy="86.35" r="6.74" transform="translate(-3.41 73.98) rotate(-3.96)"/><circle class="cls-16" cx="1052.8" cy="106.93" r="4.17" transform="translate(-4.87 72.95) rotate(-3.96)"/><circle class="cls-16" cx="1058.37" cy="105.35" r="2.98" transform="translate(-4.75 73.34) rotate(-3.96)"/><circle class="cls-16" cx="1046.77" cy="106.15" r="2.98" transform="translate(-4.83 72.54) rotate(-3.96)"/><rect class="cls-16" x="1046.65" y="102.76" width="11.92" height="2.98" transform="translate(-4.69 72.94) rotate(-3.96)"/><path class="cls-16" d="M1046,109s3.86,2.3,7.13,2.08,6.49-3,6.49-3l-2.95-2-11,.46Z"/><path class="cls-25" d="M1037.93,135.8s-.44,7.78-1.32,9.32c0,0,4.47.67,7.34-.51,0,0-3.43-6.9-3.57-9Z"/><path class="cls-17" d="M1045.85,108.91l0,.07.09,0h0s3.86,2.3,7.13,2.08,6.49-3,6.49-3h0a3,3,0,0,0,.57-.34c-.21-.08-4.45-1.75-7.62-1.49A16.15,16.15,0,0,0,1045.85,108.91Z"/><path class="cls-26" d="M1041.61,134.33s18-3.5,26.18-10.81C1067.79,123.52,1058.47,128.66,1041.61,134.33Z"/><path class="cls-26" d="M1072.71,125.11s-1.29,7.64-27.94,9.43C1044.77,134.54,1067.4,131.54,1072.71,125.11Z"/><circle class="cls-5" cx="1039.17" cy="134.31" r="2.43" transform="matrix(1, -0.07, 0.07, 1, -6.79, 72.08)"/><circle class="cls-6" cx="1039.17" cy="134.31" r="1.68" transform="translate(-6.79 72.08) rotate(-3.96)"/><polygon class="cls-24" points="1053.6 174.04 1051.73 192.78 1060.67 198.28 1068.72 191.47 1064.29 173.16 1053.6 174.04"/><polygon class="cls-24" points="1031.13 190.63 1038.74 197.85 1048.02 192.84 1047.44 174.01 1036.81 172.67 1031.13 190.63"/><polygon class="cls-24" points="1080.58 169.64 1070.23 172.43 1072.26 191.16 1082.14 194.84 1088.69 186.65 1080.58 169.64"/><polygon class="cls-14" points="1068.59 189.6 1064.16 171.29 1053.47 172.17 1051.6 190.91 1060.55 196.41 1068.59 189.6"/><polygon class="cls-14" points="1048.26 190.94 1047.69 172.12 1037.06 170.78 1031.37 188.74 1038.99 195.96 1048.26 190.94"/><polygon class="cls-14" points="1071.76 189.32 1069.73 170.59 1080.08 167.8 1088.19 184.81 1081.63 193 1071.76 189.32"/><polygon class="cls-5" points="1054.52 190.83 1065.72 190.05 1060.38 194.17 1054.52 190.83"/><polygon class="cls-5" points="1074.75 188.65 1085.6 185.77 1081.13 190.83 1074.75 188.65"/><polygon class="cls-5" points="1045.43 190.68 1034.29 189.32 1039.4 193.71 1045.43 190.68"/><circle class="cls-28" cx="1034.15" cy="88.9" r="11.79" transform="translate(-3.67 71.62) rotate(-3.96)"/><circle class="cls-28" cx="1068.49" cy="86.52" r="11.79" transform="translate(-3.42 73.99) rotate(-3.96)"/><line class="cls-28" x1="1045.9" y1="87.9" x2="1056.72" y2="87.15"/><polygon class="cls-29" points="1051.53 162.26 1071.67 129.75 980.88 135.91 1005.03 166.12 1051.53 162.26"/><rect class="cls-30" x="1001.82" y="132.03" width="49.77" height="34.42" rx="9.29" ry="9.29" transform="matrix(1, -0.07, 0.07, 1, -7.85, 71.25)"/><text class="cls-31" transform="matrix(0.79, -0.05, 0.07, 1, 1021.98, 154.47)">X</text><polygon class="cls-4" points="1023.6 166.71 1025.19 168.1 1031.16 167.69 1032.18 166.12 1023.6 166.71"/><polygon class="cls-32" points="1023.54 165.97 1023.35 163.13 1023.75 162.67 1025.04 162.58 1025.49 162.98 1025.69 165.82 1023.54 165.97"/><polygon class="cls-32" points="1025.69 165.82 1025.44 162.23 1025.84 161.77 1027.13 161.68 1027.59 162.08 1027.84 165.67 1025.69 165.82"/><polygon class="cls-32" points="1027.84 165.67 1027.56 161.71 1027.96 161.25 1029.25 161.16 1029.71 161.56 1029.98 165.52 1027.84 165.67"/><polygon class="cls-32" points="1029.98 165.52 1029.79 162.68 1030.19 162.22 1031.47 162.13 1031.93 162.53 1032.13 165.37 1029.98 165.52"/><polygon class="cls-3" points="1023.6 166.71 1023.4 163.87 1023.8 163.41 1025.09 163.33 1025.55 163.73 1025.74 166.56 1023.6 166.71"/><polygon class="cls-3" points="1025.74 166.56 1025.49 162.98 1025.89 162.52 1027.18 162.43 1027.64 162.83 1027.89 166.41 1025.74 166.56"/><polygon class="cls-3" points="1027.89 166.41 1027.62 162.46 1028.01 162 1029.3 161.91 1029.76 162.31 1030.04 166.27 1027.89 166.41"/><polygon class="cls-3" points="1030.04 166.27 1029.84 163.43 1030.24 162.97 1031.53 162.88 1031.98 163.28 1032.18 166.12 1030.04 166.27"/><path class="cls-4" d="M1073.57,65l10.59-.73,7.44-.51,5.86-.41-.67-9.71L1002,60.19l.67,9.71.63,0,5.72-.4,6.35-.44,5.79-.4a31.9,31.9,0,0,0-1.44,4.23l58.57-4.05A48.2,48.2,0,0,0,1073.57,65Z"/><rect class="cls-14" x="1002.05" y="52.78" width="95.04" height="13.84" transform="translate(-1.62 72.62) rotate(-3.96)"/><line class="cls-33" x1="1001.84" y1="58.32" x2="1096.66" y2="51.76"/><line class="cls-33" x1="1002.51" y1="68.02" x2="1097.33" y2="61.46"/><rect class="cls-7" x="1048.09" y="58.39" width="2.99" height="2.99" transform="translate(315.26 812.21) rotate(-48.96)"/><rect class="cls-7" x="1021.18" y="59.88" width="2.99" height="2.99" transform="translate(304.9 792.43) rotate(-48.96)"/><rect class="cls-7" x="1076.8" y="56.03" width="2.99" height="2.99" transform="translate(326.91 833.06) rotate(-48.96)"/><path class="cls-34" d="M992.7,45.45s9.62,3.46,9,10.63l94.82-6.56,2.29-10.29-5.52,2.41s7.73-13.82-3.55-25c0,0-1.32,5.47-5,7.17,0,0-2.51-13.39-19.8-19.32,0,0,3,5.79-2.8,13.7,0,0-8-18.2-30.51-18.14,0,0,4.15,5.71,2.21,15.6,0,0-5.64-5.61-16.19-6.38,0,0,4.69,13.55,1.19,17.17,0,0-7.71-8.47-25.59-1.23,0,0,15.87,5.31,12.19,18.11C1005.36,43.27,1001.82,41.82,992.7,45.45Z"/><path class="cls-4" d="M1019.38,84.11c-1.08-4.8,2-11.77,2-11.77l-5.79.4-6.35.44-4.65.32c.62,3.5,1.43,7.07,2.41,10.71,0,0,.51.87,1.32,2.3a43.13,43.13,0,0,0,5.43-8.46Z"/><path class="cls-4" d="M1084.42,68l-10.59.73s11.42,7.84,13.53,16.69l3-12.16,4.73,4.16c.36-.79.58-1.21.58-1.21a81.83,81.83,0,0,0,.67-9l-4.54.31Z"/><path class="cls-34" d="M1021.12,68.61l-5.79.4-6.35.44-5.72.4a56,56,0,0,1,.59,17.59,49.62,49.62,0,0,0,9.65-13.11l5.61,6.05C1018,75.58,1021.12,68.61,1021.12,68.61Z"/><path class="cls-34" d="M1099.19,77.46l-1.73-14.13-5.86.41-7.44.51-10.59.73s11.42,7.84,13.53,16.69l3-12.16Z"/><path class="cls-35" d="M1015.33,69l-6.35.44-5.72.4a37.32,37.32,0,0,1,.64,4.08l15.77-1.09a31.9,31.9,0,0,1,1.44-4.23Z"/><path class="cls-35" d="M1097.46,63.33l-5.86.41-7.44.51-10.59.73a48.2,48.2,0,0,1,4.68,3.8l19.49-1.35Z"/><path class="cls-36" d="M1023.52,47.27s-1.5-8.47-9.69-9.68c0,0,8.3-6.79,20.48-.21"/><path class="cls-36" d="M1057.79,39.15s3.36-5.84-1-10.69c0,0,8.39.09,12.4,10.17"/><path class="cls-36" d="M1069.14,38.06s3.51-2.51,2.28-6.47c0,0,4.86,2.28,4.52,9.21"/><path class="cls-4" d="M1102.88,143.62c.77-.52,1.2-.86,1.2-.86l-.19-1.64,0-.07h0l-.56-4.79-1.52-.81c-2,.71-3.67,1.33-5.12,1.84l0,.41-1,.5,1.24,7,1.8.9a41,41,0,0,0,3.8-2.23l0-.08Z"/><rect class="cls-8" x="1088.47" y="105.05" width="33.1" height="22.2" rx="6.04" ry="6.04" transform="translate(9.07 -66.73) rotate(3.47)"/><rect class="cls-14" x="1100.97" y="127.56" width="5.97" height="23.69" transform="translate(10.47 -66.62) rotate(3.47)"/><rect class="cls-5" x="1093.34" y="104.39" width="1.61" height="22.2" transform="translate(9.01 -66.07) rotate(3.47)"/><rect class="cls-5" x="1114.69" y="105.68" width="1.61" height="22.2" transform="translate(9.12 -67.36) rotate(3.47)"/><rect class="cls-7" x="1103.37" y="115.14" width="3.23" height="3.23" transform="translate(200.34 761.92) rotate(-41.53)"/><polygon class="cls-3" points="1108.82 134.55 1101.87 133.19 1099.34 135.18 1099.9 137.29 1098.27 138.9 1098.86 140.89 1097.98 142.58 1099.35 143.87 1106.23 145.01 1108.41 142.88 1107.28 141.38 1109.3 139.8 1107.76 138.41 1109.82 136.67 1108.82 134.55"/><path class="cls-4" d="M1094.17,138.11c-2.59.8-4.29,1-5.76.46l.74,10.7a22.71,22.71,0,0,0,2.49-.46l4.1-1.8Z"/><polygon class="cls-14" points="1089.88 138.12 1090.68 149.69 1097.24 146.81 1095.61 137.64 1089.88 138.12"/><path class="cls-37" d="M232.47,219.37c-2-11.9,9.35-25.71.07-31.11s5.9-23.8,1.15-32.42-2.85-21.14-2.85-21.14l-31.71-6.39v-.06l-.17,0-.17,0v.06l-32.08,4.16s1,12.62-4.32,20.89,8.51,27.69-1.12,32.42.68,19.3-2.1,31-7.94,14.26-7.94,14.26l43.9,1.53h.34l43.9,1.53S234.42,231.27,232.47,219.37Z"/><path class="cls-38" d="M224.23,218.41c-1.46-11.89,7.6-25.77.28-31.1s4.86-23.84,1.14-32.42-2.11-21.11-2.11-21.11l-25.11-6.16v-.06l-.13,0-.13,0v.06L172.7,132s.73,12.61-3.57,20.91,6.55,27.62-1.12,32.42.4,19.29-1.89,31-6.4,14.32-6.4,14.32l34.82,1.22h.27l34.82,1.22S225.69,230.29,224.23,218.41Z"/><polygon class="cls-15" points="154.58 242.01 235.63 244.84 195.06 196.42 154.58 242.01"/><path class="cls-3" d="M251.79,169.67S232,153.92,215.72,146.87c-1.14-.49-2.3-1-3.45-1.36l-27,.22s-.74.52-2,1.52c-5.68,4.55-21.92,19.07-26.81,39.71l6.26,4.61s10.25-22.3,20.67-30.39c0,0,.39,16.52-2.37,29-2.84,12.85-9.17,30.11-14.16,47.18,0,0-4.47,2.21-4.57,4.91l16.55.58s9.61-33.14,14.54-38.71l6.75.24s10.19,27.74,11.46,39.62l15.87.55a5.43,5.43,0,0,0-4.24-4.54s-7.71-25-10.81-48.73c-1.39-10.61.38-20.61.35-29.4,0,0,23.56,3.19,33.36,13Z"/><path class="cls-3" d="M251.79,169.67S232,153.92,215.72,146.87c-1.14-.49-2.3-1-3.45-1.36l-27,.22s-.74.52-2,1.52c-5.68,4.55-21.92,19.07-26.81,39.71l6.26,4.61s10.25-22.3,20.67-30.39c0,0,.39,16.52-2.37,29-2.84,12.85-9.17,30.11-14.16,47.18,0,0-4.47,2.21-4.57,4.91l16.55.58s9.61-33.14,14.54-38.71l6.75.24s10.19,27.74,11.46,39.62l15.87.55a5.43,5.43,0,0,0-4.24-4.54s-7.71-25-10.81-48.73c-1.39-10.61.38-20.61.35-29.4,0,0,23.56,3.19,33.36,13Z"/><path class="cls-4" d="M196.27,152.17c9.1-.41,17.51-.84,23.79-3.24-1.43-.74-2.87-1.43-4.33-2.06-1.14-.49-2.3-1-3.45-1.36l-27,.22s-.74.52-2,1.52c-.78.62-1.76,1.44-2.89,2.44A39.19,39.19,0,0,0,196.27,152.17Z"/><path class="cls-39" d="M217.34,139.38s-6.85,12.27.82,25a23.22,23.22,0,0,1,.18,24s13-16.15,4.67-28.26,7.58-27.85,7.58-27.85Z"/><path class="cls-39" d="M220.57,124.28s-6.85,12.27.82,25a23.22,23.22,0,0,1,.18,24s13-16.15,4.67-28.26,7.58-27.85,7.58-27.85Z"/><path class="cls-39" d="M185,127.77s6,12.72-2.56,24.93a23.22,23.22,0,0,0-1.85,23.94s-11.84-17-2.69-28.52-5.62-28.32-5.62-28.32Z"/><path class="cls-39" d="M167.64,110.26s-6.85,12.27.82,25a23.22,23.22,0,0,1,.18,24s13-16.15,4.67-28.26,7.58-27.85,7.58-27.85Z"/><path class="cls-3" d="M158.54,109.26s4.41,15.14,7.7,21.57c3.16,6.2,13.28,16.69,30.21,15.93s29.81-1.66,34.34-15c4.4-13,8.19-21.35,8.19-21.35s3.24-24.5-9.33-38.4c-12.18-13.47-19.71-20.77-29.83-21.46s-29.61,5.39-36.45,17.32S156,93.62,158.54,109.26Z"/><path class="cls-40" d="M166.92,237.37l13,1.84-1,3.65-16.55-.58S162.44,239.58,166.92,237.37Z"/><path class="cls-40" d="M223.89,239.36l-13.12.93.79,3.71,16.55.58S228.2,241.88,223.89,239.36Z"/><polygon class="cls-7" points="168.5 230.74 180.8 237.71 181.3 236.02 168.75 228.89 168.5 230.74"/><polygon class="cls-7" points="167.66 233.96 183.14 229.97 182.52 231.88 167.31 235.69 167.66 233.96"/><polygon class="cls-7" points="221.49 233.53 210.48 238.89 210.19 237.53 221.2 232.16 221.49 233.53"/><polygon class="cls-7" points="222.72 236.66 208.69 232.23 209.14 233.97 223.01 238.45 222.72 236.66"/><path class="cls-4" d="M249.06,167.56l-1.8-.11.17-1.11-1.29-1-.36,2-1.15-.07-2,2.09.75,1.82-.65.83a24.38,24.38,0,0,1,3.47,2.84l5.59-5.21S250.79,168.87,249.06,167.56Z"/><rect class="cls-8" x="243.4" y="149.18" width="4.01" height="96.31" transform="matrix(0.99, 0.12, -0.12, 0.99, 26.2, -28.75)"/><path class="cls-7" d="M260.17,140.48h0v0a7.58,7.58,0,0,0-.24-1.15l-1.41-6.71h-.09l-3-8.05-5.45,6.66-.17,0-3.48,5.91a7.58,7.58,0,0,0-.6,1v0h0a7.66,7.66,0,1,0,14.49,2.38Z"/><polygon class="cls-10" points="248.34 149.93 254.38 150.92 254.07 148.93 249.1 148.24 248.34 149.93"/><path class="cls-41" d="M255.31,124.72s-5.58,6.34-7.28,9.38l3.39-3.07-.78,7.22,3.1-6.43.29,10.67,1.57-9.54,1.6,5.16.05-5.3,1.61,1.49S256.31,126.11,255.31,124.72Z"/><polygon class="cls-3" points="252.32 169.51 245.93 169.13 243.91 171.22 244.66 173.04 243.39 174.67 244.16 176.38 243.58 178 244.96 178.99 251.26 179.18 252.95 177.01 251.76 175.81 253.38 174.15 251.83 173.09 253.47 171.28 252.32 169.51"/><circle class="cls-14" cx="182.66" cy="115.85" r="6.08" transform="translate(60.5 294.36) rotate(-88)"/><circle class="cls-14" cx="213.39" cy="116.93" r="6.08" transform="translate(89.08 326.11) rotate(-88)"/><path class="cls-4" d="M239.83,82.51C236.62,71.42,228,55.56,200,55.26c-28-1.66-36.65,13.6-40.63,24.44s12.1,46.93,12.1,46.93c-6.82-17.82-.89-23,10-25.69s17,8.37,17,8.37,7.13-10.57,17.83-7.15,16.25,9,8.21,26.32C224.48,128.47,243,93.6,239.83,82.51Z"/><path class="cls-8" d="M224,142l16.16-17.36.85-24.32a53.19,53.19,0,0,0-1-22.19C236.78,67,228.2,51.17,200.15,50.87c-28-1.66-36.65,13.6-40.63,24.44s-2.25,22.08-2.25,22.08l-1.19,24.3L171,140.13l.63-17.9c-6.82-17.82-.89-23,10-25.69s17,8.37,17,8.37,7.13-10.57,17.83-7.15,16.25,9,8.21,26.32Z"/><polygon class="cls-42" points="183.34 52.25 187.8 7.5 217.18 8.52 216.96 53.42 183.34 52.25"/><polygon class="cls-14" points="191.19 45.82 192.29 82.04 205.13 82.49 209.77 46.47 191.19 45.82"/><polygon class="cls-43" points="191.26 43.8 192.37 80.01 205.2 80.46 209.84 44.45 191.26 43.8"/><circle class="cls-16" cx="197.55" cy="133.96" r="3.77" transform="translate(56.77 326.7) rotate(-88)"/><circle class="cls-16" cx="202.7" cy="133.06" r="2.69" transform="translate(62.64 330.98) rotate(-88)"/><circle class="cls-16" cx="192.2" cy="132.69" r="2.69" transform="translate(52.88 320.14) rotate(-88)"/><rect class="cls-16" x="192.25" y="130.19" width="10.77" height="2.69" transform="translate(4.72 -6.82) rotate(2)"/><path class="cls-16" d="M191.21,135.19s3.25,2.43,6.21,2.53,6.11-2.1,6.11-2.1l-2.46-2.08-9.94-.62Z"/><path class="cls-17" d="M191.12,135.09v.07l.08,0h0s3.25,2.43,6.21,2.53,6.11-2.1,6.11-2.1h0a2.68,2.68,0,0,0,.54-.25c-.18-.09-3.83-2-6.71-2.06A14.58,14.58,0,0,0,191.12,135.09Z"/><path class="cls-14" d="M190.82,95.18c-2-1.08-7.72-1.62-14.22.52s-8.67,6.12-9.54,11.84S170,122.35,170,122.35l-.55,15.86,1.55,1.91.63-17.9c-6.82-17.82-.89-23,10-25.69s17,8.37,17,8.37l.11-3C198.07,100.5,192.81,96.26,190.82,95.18Z"/><path class="cls-14" d="M207,95.74c2.06-.94,7.81-1.08,14.15,1.51s8.22,6.71,8.69,12.48-4,14.58-4,14.58l-.55,15.86L223.6,142l.63-17.9c8-17.3,2.49-22.91-8.21-26.32s-17.49,7.17-17.49,7.17l.11-3C199.35,100.55,204.9,96.68,207,95.74Z"/><polygon class="cls-44" points="191.26 43.8 209.84 44.45 217.18 8.52 187.8 7.5 191.26 43.8"/><path class="cls-4" d="M193.44,204.14l6.75.24s2.95,8,5.87,17.29a134.78,134.78,0,0,0,10.33,11.6c2.15,2.14,4.4,4.21,6.74,6.18-1.14-3.79-7.81-26.54-10.64-48.18a67.85,67.85,0,0,1-.53-8.81l-.56,0-28.37-1-.54,0a87.36,87.36,0,0,1-1.42,8.74c-2.84,12.85-9.17,30.11-14.16,47.18a12,12,0,0,0-3.9,3.13,104.76,104.76,0,0,0,11.49-8.69,135.56,135.56,0,0,0,11.59-11.38C188.68,213.17,191.44,206.4,193.44,204.14Z"/><path class="cls-7" d="M174.2,234l6.6,3.74.51-1.69-4.68-2.66,5.9-1.48.62-1.91-8.59,2.21-.29-.16q-1.64,1.41-3.34,2.77Z"/><path class="cls-45" d="M163.61,239.77a6.58,6.58,0,0,0-.53.68q2.22-1.44,4.35-3l-.52-.07-.07,0A13.23,13.23,0,0,0,163.61,239.77Z"/><path class="cls-24" d="M168.85,230.94l3.29,1.87L168,233.89l-.53,1.78,3.5-.88q1.7-1.35,3.34-2.77l-4.89-2.77Z"/><path class="cls-24" d="M221.32,237.9l1.49.48-.54-1.86-3.74-1.18Q219.89,236.64,221.32,237.9Z"/><path class="cls-24" d="M221.43,233.56l-.36-1.33-3.83,1.87,1,1Z"/><path class="cls-7" d="M212.47,179.11l-30.29-1.06s18.91,46.65,53.37,66.79C235.55,244.84,219.73,223.32,212.47,179.11Z"/><path class="cls-46" d="M183.15,178.09c3.34,7.65,21,45.52,50.69,64.13,1.08,1.75,1.72,2.62,1.72,2.62-34.46-20.14-53.37-66.79-53.37-66.79Z"/><path class="cls-24" d="M213.24,183.53q-.4-2.17-.77-4.42l-27.24-1c-.24,1-.48,2-.72,2.95a191.57,191.57,0,0,0,14,24.85A191.82,191.82,0,0,0,213.24,183.53Z"/><path class="cls-47" d="M208,179s4.64,24.24,7.43,28.44c0,0-6.29-9-8.47-28.48Z"/><path class="cls-47" d="M201.13,178.72s3.19,16.66,5.1,19.55c0,0-4.32-6.21-5.82-19.58Z"/><path class="cls-7" d="M182.2,178.05l30.29,1.06s-22.12,45.21-57.91,62.9C154.58,242,171.86,221.65,182.2,178.05Z"/><path class="cls-46" d="M211.52,179.08c-3.87,7.4-24.12,43.95-55,60.44-1.2,1.67-1.9,2.49-1.9,2.49,35.78-17.68,57.91-62.9,57.91-62.9Z"/><polygon class="cls-5" points="237.32 158 233.57 168.35 240.57 171.3 243.92 162.63 237.32 158"/><polygon class="cls-4" points="236.98 158.94 236.34 158.52 233.08 167.11 233.91 167.43 236.98 158.94"/><path class="cls-4" d="M182.86,158.47a11.41,11.41,0,0,1,6.53-5.82s7,3.45,8.67,6.35c0,0,5.54-5.85,9.47-6.43a39.63,39.63,0,0,1,6.12,8s1.31.76-.27,6.39L213,177.78l-31.22-1.09.39-11.14A8,8,0,0,1,182.86,158.47Z"/><path class="cls-45" d="M182.81,159.82a11.41,11.41,0,0,1,6.53-5.82s7,3.45,8.67,6.35c0,0,5.54-5.85,9.47-6.43a39.63,39.63,0,0,1,6.12,8s1.31.76-.27,6.39L213,179.13,181.74,178l.39-11.14A8,8,0,0,1,182.81,159.82Z"/><path class="cls-40" d="M182.72,162.52s1.47-3.53,6.52-5.49c0,0,7,3.45,8.67,6.35,0,0,5.54-5.85,9.47-6.43a39.63,39.63,0,0,1,6.12,8s1.31.76-.27,6.39l-.27,7.74L181.74,178l.28-8.1A8.79,8.79,0,0,1,182.72,162.52Z"/><path class="cls-24" d="M183.15,178.09l-1,0h0v0c-.17.72-.34,1.43-.52,2.14v.18l28.61,1c.52-.94.94-1.73,1.25-2.32Z"/><path class="cls-46" d="M210.27,181.4c-5.94,10.82-25.36,42.95-53.79,58.11-1.2,1.67-1.9,2.49-1.9,2.49,30.92-15.28,51.64-51.12,56.7-60.57Z"/><path class="cls-46" d="M212.49,179.11h0l-1,0c-.31.59-.73,1.38-1.25,2.32l1,0C212.08,180,212.49,179.11,212.49,179.11Z"/><path class="cls-47" d="M186.53,178.21s-6.32,23.85-9.39,27.86c0,0,6.9-8.57,10.44-27.82Z"/><path class="cls-47" d="M193.36,178.44s-4.34,16.4-6.46,19.15c0,0,4.75-5.89,7.18-19.12Z"/><path class="cls-47" d="M202.26,178.76s-3,8.71-4.49,10.16c0,0,3.35-3.11,5-10.14Z"/><polygon class="cls-48" points="187.38 243.16 190.67 227.04 191.73 243.31 187.38 243.16"/><polygon class="cls-48" points="199.2 243.57 202.49 227.45 203.55 243.72 199.2 243.57"/><path class="cls-49" d="M140.38,162.75a30.95,30.95,0,1,0,33,52.36c.34-.22.66-.45,1-.69a3.86,3.86,0,0,0,.61-.31L186.31,207a3.89,3.89,0,1,0-4.14-6.57l-1,.64a7.79,7.79,0,0,1-10.72-2.43h0a7.79,7.79,0,0,1,2.43-10.72s7.31-9.38,7.52-12C181.89,157.35,154.84,153.63,140.38,162.75Z"/><circle class="cls-50" cx="142.57" cy="199.73" r="6.13" transform="translate(-84.55 106.82) rotate(-32.23)"/><circle class="cls-51" cx="143.56" cy="180.15" r="6.13" transform="translate(-73.96 104.33) rotate(-32.23)"/><circle class="cls-49" cx="166.75" cy="175.48" r="13.69" transform="translate(-67.89 115.97) rotate(-32.23)"/><circle class="cls-52" cx="160.74" cy="171.73" r="6.13" transform="translate(-66.82 112.19) rotate(-32.23)"/><path class="cls-53" d="M885.79,147.34s-17.49,69.27-25.72,77.85c0,0,45.85,11.54,86.89.11,0,0-23.44-47.44-25.16-77.62Z"/><path class="cls-54" d="M888.72,142.88s-14.59,74.7-21.46,83.94c0,0,38.25,12.44,72.48.12,0,0-19.56-51.15-21-83.69Z"/><path class="cls-55" d="M925,239.79s-4-3.52-5.7-7.27-6.43-3.29-12.13-3c0,0-3.15,1.4,1.2,2.47,0,0-3.09,1.85,2.13,2.67,0,0-2.53,4,3,2.41,0,0-3.75,3.93,2.31,1.68,0,0-2.35,3,2,1.31,0,0,.09,3.27,2.79.59A3.21,3.21,0,0,0,925,239.79Z"/><path class="cls-56" d="M923.52,239a22.34,22.34,0,0,1-4.57-6.33c-1.29-3.2-5.26-3.07-10-3.16,0,0-2.64,1,.94,2.11,0,0-2.61,1.37,1.71,2.33,0,0-2.19,3.21,2.44,2.16,0,0-3.19,3.06,1.88,1.51,0,0-2,2.4,1.6,1.19,0,0,0,2.72,2.3.64A2.65,2.65,0,0,0,923.52,239Z"/><path class="cls-55" d="M883.42,239.79s4-3.52,5.7-7.27,6.43-3.29,12.13-3c0,0,3.15,1.4-1.2,2.47,0,0,3.09,1.85-2.13,2.67,0,0,2.53,4-3,2.41,0,0,3.75,3.93-2.31,1.68,0,0,2.35,3-2,1.31,0,0-.09,3.27-2.79.59A3.21,3.21,0,0,1,883.42,239.79Z"/><path class="cls-56" d="M884.89,239a22.34,22.34,0,0,0,4.57-6.33c1.29-3.2,5.26-3.07,10-3.16,0,0,2.64,1-.94,2.11,0,0,2.61,1.37-1.71,2.33,0,0,2.19,3.21-2.44,2.16,0,0,3.19,3.06-1.88,1.51,0,0,2,2.4-1.6,1.19,0,0,0,2.72-2.3.64A2.65,2.65,0,0,1,884.89,239Z"/><path class="cls-3" d="M869.67,173.4s-.54-8.5,3.09-15.09c3.77-6.86,7.06-12.17,13.36-14.64,1.18-.46,2.36-.88,3.55-1.26l26.65.12a34.74,34.74,0,0,0,2.67,2.67c5.6,4.82,14.14,9.33,29.21,22.36L941.67,172a68.25,68.25,0,0,0-20.56-9.6s8.56,39.44,11.3,74.76c0,0,4.46,2.4,4.46,5.14h-16.8s-6.52-27.44-11.32-33.27H898.8s-10.29,21.26-12,33.27H870.68a5.52,5.52,0,0,1,4.46-4.46s5.83-53.5,12.69-78.19c0,0,.72-3.07-5.81,2.74-3.09,2.74-4.8,6.52-3.09,10.29Z"/><polygon class="cls-7" points="887.5 155.35 882.01 185.41 925.57 185.41 919.56 152.37 887.5 155.35"/><path class="cls-24" d="M918,159.34a8.15,8.15,0,0,0,1.94-4.73l-.41-2.24-32.05,3-.28,1.53a12.17,12.17,0,0,0,5.77,5.55C902.93,167.23,913.91,163.8,918,159.34Z"/><path class="cls-4" d="M905.65,149.74c-9.21-.74-17.73-1.48-24-4.13,1.47-.7,3-1.35,4.46-1.94,1.18-.46,2.36-.88,3.55-1.26L917,143.6s.73.55,2,1.61c.77.66,1.74,1.53,2.84,2.57A39.77,39.77,0,0,1,905.65,149.74Z"/><path class="cls-4" d="M864.06,111.6s-7.42-.61-6.74,8,13.37,9.26,13.37,9.26L869,115.1Z"/><path class="cls-4" d="M942.11,111.6s7.42-.61,6.74,8-13.37,9.26-13.37,9.26l1.71-13.72Z"/><path class="cls-53" d="M886.13,143.57s-3.09,12,6.86,16.8,20.92,1.37,25-3.09c3.38-3.67,1.67-10.58.95-12.92a2.64,2.64,0,0,0-.88-1.29h0a1.77,1.77,0,0,0-2.21,0h0a2.65,2.65,0,0,0-.84,1.13c-.59,1.55-2.67,5.48-8.68,6.57-7.54,1.37-15.42-3.77-16.8-7.2S886.13,143.57,886.13,143.57Z"/><path class="cls-54" d="M888.39,144.85s3.22,6.95,9.74,9C898.13,153.86,891.34,154,888.39,144.85Z"/><path class="cls-54" d="M887.5,146.31s2.4,10.29,11.32,13.72C898.82,160,891.62,156.6,887.5,146.31Z"/><path class="cls-54" d="M918.37,147.68a10.08,10.08,0,0,1-3.09,6.86S919.05,152.83,918.37,147.68Z"/><path class="cls-54" d="M917,145.28s-.69,4.8-6.17,8.57A9.82,9.82,0,0,0,917,145.28Z"/><circle class="cls-5" cx="888.36" cy="145.11" r="2.92"/><circle class="cls-6" cx="888.36" cy="145.11" r="2.02"/><circle class="cls-5" cx="917.51" cy="145.11" r="2.92"/><circle class="cls-6" cx="917.51" cy="145.11" r="2.02"/><path class="cls-3" d="M862.12,107.56s7.2,14.4,8.57,21.61,14.06,16.46,31.21,15.09,31.89-2.74,34.29-16.46,7.54-21.95,7.54-21.95,5.14-23.32-3.09-40.47S912.19,46.86,901.9,46.52,872.07,53,865.55,65.38,859,91.78,862.12,107.56Z"/><path class="cls-53" d="M932.41,237.19l-13.27,1.41.93,3.74h16.8S936.87,239.59,932.41,237.19Z"/><polygon class="cls-54" points="936.8 241.65 920.01 241.91 920.07 242.34 936.87 242.34 936.8 241.65"/><path class="cls-53" d="M874.55,237.19l13.27,1.41-.93,3.74H870.1S870.1,239.59,874.55,237.19Z"/><polygon class="cls-54" points="870.16 241.65 886.96 241.91 886.9 242.34 870.1 242.34 870.16 241.65"/><polygon class="cls-7" points="931.78 230 918.68 236.83 918.21 235.05 931.58 228.06 931.78 230"/><polygon class="cls-7" points="932.12 233.71 916.56 229.12 917.12 231.07 932.28 235.53 932.12 233.71"/><polygon class="cls-7" points="875.61 231.16 888.02 237.63 888.47 235.94 875.8 229.32 875.61 231.16"/><polygon class="cls-7" points="875.29 234.67 890.02 230.32 889.5 232.18 875.14 236.4 875.29 234.67"/><circle class="cls-14" cx="886.82" cy="113.39" r="6.17"/><circle class="cls-14" cx="918.02" cy="113.39" r="6.17"/><circle class="cls-16" cx="902.56" cy="131.22" r="3.82"/><circle class="cls-16" cx="907.75" cy="130.13" r="2.73"/><circle class="cls-16" cx="897.09" cy="130.13" r="2.73"/><rect class="cls-16" x="897.09" y="127.4" width="10.93" height="2.73"/><path class="cls-16" d="M896.17,132.7s3.38,2.35,6.39,2.35,6.12-2.35,6.12-2.35l-2.57-2L896,130.4Z"/><path class="cls-17" d="M896.07,132.59v.07l.08,0h0s3.38,2.35,6.39,2.35,6.12-2.35,6.12-2.35h0a2.72,2.72,0,0,0,.54-.27c-.19-.09-4-1.88-6.87-1.85A14.8,14.8,0,0,0,896.07,132.59Z"/><polygon class="cls-4" points="940.51 165.96 938.91 170.25 940.93 172.56 946.11 166.6 945.26 164.69 940.51 165.96"/><polygon class="cls-3" points="942.61 166.57 938.81 171.73 944.78 178.38 946.88 177.71 945.64 174.66 950.51 171.82 948.34 166.38 942.61 166.57"/><rect class="cls-57" x="890.24" y="81.84" width="25.38" height="7.54"/><path class="cls-4" d="M898.09,210.59l-20.15,4.57c-.19,1.44-.38,2.85-.55,4.2l16.84,0C895.82,215.52,897.26,212.35,898.09,210.59Z"/><path class="cls-4" d="M929.68,212.35,928,203.81l-19.22,5.26c1.49,1.81,3.15,5.7,4.72,10.21l17.11,0Q930.15,215.75,929.68,212.35Z"/><path class="cls-57" d="M902.59,42.4c-24.43,0-44.24,19.19-44.24,42.87h88.48C946.83,61.59,927,42.4,902.59,42.4Z"/><path class="cls-58" d="M858.49,81.84c1.21.16,3-.57,5.48-3.07,0,0,6.8,4.93,13-2.44a87.43,87.43,0,0,1-12.12-13.44A41.7,41.7,0,0,0,858.49,81.84Z"/><path class="cls-55" d="M880.41,72.9s-11.89-10.36-16.77-21.39S844.74,41.84,828,42.6c0,0-9.26,4.1,3.54,7.27,0,0-9.1,5.44,6.27,7.85,0,0-7.44,11.88,8.84,7.1,0,0-11,11.55,6.8,4.93,0,0-6.9,9,5.78,3.84,0,0,.27,9.61,8.19,1.75C867.4,75.34,874.2,80.27,880.41,72.9Z"/><path class="cls-56" d="M876.1,70.64S866.46,61.42,862.66,52s-15.46-9-29.37-9.28c0,0-7.77,2.91,2.77,6.22,0,0-7.66,4,5,6.84,0,0-6.43,9.45,7.17,6.35,0,0-9.39,9,5.53,4.45,0,0-5.92,7.06,4.71,3.49,0,0,0,8,6.75,1.88C865.26,72,870.79,76.41,876.1,70.64Z"/><polygon class="cls-7" points="878.96 217.07 931.05 216.96 927.97 201.53 878.96 217.07"/><path class="cls-24" d="M927.89,201.55,879,217.07l9.16,0c12.49-2.57,31-7.21,40.11-13.6Z"/><polygon class="cls-46" points="882.68 215.93 878.96 217.07 931.05 216.96 931.05 215.93 882.68 215.93"/><polygon class="cls-46" points="882.68 215.93 878.96 217.07 931.05 216.96 931.05 215.93 882.68 215.93"/><path class="cls-59" d="M893.35,215.93H882.68L879,217.07l9.16,0C889.77,216.72,891.53,216.34,893.35,215.93Z"/><path class="cls-58" d="M939.58,61.75a87.69,87.69,0,0,1-12,13.21c6.21,7.36,13,2.44,13,2.44,2.84,2.82,4.69,3.39,5.91,3A41.78,41.78,0,0,0,939.58,61.75Z"/><path class="cls-55" d="M924.2,72.9S936.09,62.55,941,51.52s18.9-9.68,35.66-8.91c0,0,9.26,4.1-3.54,7.27,0,0,9.1,5.44-6.27,7.85,0,0,7.44,11.88-8.84,7.1,0,0,11,11.55-6.8,4.93,0,0,6.9,9-5.78,3.84,0,0-.27,9.61-8.19,1.75C937.2,75.34,930.4,80.27,924.2,72.9Z"/><path class="cls-56" d="M928.5,70.64s9.63-9.22,13.44-18.62,15.46-9,29.37-9.28c0,0,7.77,2.91-2.77,6.22,0,0,7.66,4-5,6.84,0,0,6.43,9.45-7.17,6.35,0,0,9.39,9-5.53,4.45,0,0,5.92,7.06-4.71,3.49,0,0,0,8-6.75,1.88C939.34,72,933.81,76.41,928.5,70.64Z"/><path class="cls-7" d="M881.67,188.84s-3.77,22.63-6.17,28.81c0,0,38.26-5.75,52.74-15.91L926,189.63Z"/><path class="cls-46" d="M875.88,216.56c-.13.4-.26.77-.38,1.09,0,0,38.26-5.75,52.74-15.91l-.17-.91C914.32,210.32,879.87,215.93,875.88,216.56Z"/><polygon class="cls-60" points="920.77 186.94 919.05 207.7 927.72 207.7 924.54 187.12 920.77 186.94"/><polygon class="cls-24" points="881.63 189.87 926.02 190.66 925.91 189.63 881.76 188.84 881.63 189.87"/><path class="cls-53" d="M882.58,181.29s31.33,3.77,43,4.11l.45,4.22-44.38-.78Z"/><polygon class="cls-53" points="920.77 185.23 919.05 205.98 927.72 205.98 924.54 185.41 920.77 185.23"/><polygon class="cls-54" points="882.42 182.59 896.08 184.04 882.33 183.31 882.42 182.59"/><polygon class="cls-54" points="882.14 184.84 892.3 185.06 882.01 185.41 882.14 184.84"/><polygon class="cls-54" points="881.86 187.07 893.67 187.12 881.79 187.64 881.86 187.07"/><polygon class="cls-54" points="921.1 189.63 921.79 198.1 922.1 189.63 921.1 189.63"/><polygon class="cls-54" points="923.39 189.58 923.85 195.7 924.41 189.63 923.39 189.58"/><path class="cls-61" d="M920.23,191.74a5.11,5.11,0,0,0,5.22-.43l-.26-1.7H926l-.45-4.22c-2.06-.06-4.74-.23-7.74-.46a5.11,5.11,0,0,0,.09,4.54l2.5,0Z"/><circle class="cls-53" cx="922.48" cy="187.12" r="3.77"/><path class="cls-4" d="M889.24,90.76s7.2,13.6,28.41,14.4c0,0-5.7-5.91-8.43-10.78,10.23,8.72,27.87,16.95,27.87,16.95a48.58,48.58,0,0,1-8.41-19.45c1.59,2.38,5.63,7.92,10.18,10.2,0,0-3.92-6.06-3.87-10.29a42.38,42.38,0,0,1,9.33,10.75,90.24,90.24,0,0,0,1-11.78l-2.26-3.09H889.22Z"/><path class="cls-4" d="M877.56,90.94c0,1.15.18,7.5-1.38,12.16,0,0,9.6-6.52,13-12.35V87.67H870.7l-10.56,3.09a99.89,99.89,0,0,0,2,16.8l.2.41A58.44,58.44,0,0,0,877.56,90.94Z"/><path class="cls-57" d="M859.25,87.67s.9,14.42-5.86,23c0,0,15.65-7.66,24.27-23Z"/><path class="cls-57" d="M889.24,87.67s7.2,13.6,28.41,14.4c0,0-9.25-9.6-9.83-14.4Z"/><path class="cls-57" d="M928.53,87.67s.95,9.91,8.57,20.58c0,0-22.86-10.67-31.63-20.58Z"/><path class="cls-57" d="M946.84,87.67a49.91,49.91,0,0,1,0,16.47,43.22,43.22,0,0,0-13.18-16.47Z"/><path class="cls-57" d="M928,87.67s5,8.38,10.9,11.32c0,0-4.61-7.13-3.77-11.32Z"/><path class="cls-57" d="M877.56,87.67s.34,7.2-1.37,12.35c0,0,9.6-6.52,13-12.35Z"/><polygon class="cls-62" points="873.78 187.12 873.78 210.44 866.58 199.81 866.58 181.29 873.78 187.12"/><rect class="cls-63" x="873.78" y="187.12" width="7.2" height="23.32"/><path class="cls-58" d="M946.84,87.67H920.26a22.38,22.38,0,0,0-5.49-2.74,2.92,2.92,0,0,0-2.91,2.74c0,.06,0,.11,0,.17a2.92,2.92,0,0,0,2.92,2.92h14.32c-.18-.8-.31-1.46-.4-2,.35.52.82,1.2,1.39,2h5.15a9.41,9.41,0,0,1-.23-2.06c.83.67,1.62,1.36,2.36,2.06H946a2.88,2.88,0,0,0,1.26-.29C947,88.71,946.84,87.67,946.84,87.67Z"/><path class="cls-58" d="M893.67,87.67a2.92,2.92,0,0,0-2.91-2.74l-1.54,2.74h0a18.66,18.66,0,0,0,2.17,3,2.92,2.92,0,0,0,2.26-2.84C893.67,87.78,893.67,87.73,893.67,87.67Z"/><path class="cls-58" d="M877.67,87.67H859.25s.07,1.19,0,3.09h16.5q.93-1.4,1.79-2.91c0,.41,0,1.48,0,2.91h9.37a21,21,0,0,0,2.29-3.09Z"/><rect class="cls-6" x="911.85" y="81.84" width="37.04" height="5.83" rx="2.92" ry="2.92"/><rect class="cls-6" x="856.29" y="81.84" width="37.38" height="5.83" rx="2.92" ry="2.92"/><polygon class="cls-64" points="866.58 181.29 873.44 181.29 880.99 187.12 873.78 187.12 866.58 181.29"/><rect class="cls-65" x="869.67" y="176.83" width="2.74" height="5.49"/><polygon class="cls-66" points="868.98 181.98 869.67 182.32 869.67 176.83 868.98 176.49 868.98 181.98"/><polygon class="cls-4" points="875.72 168.63 878.36 172.38 876.99 175.12 870.47 170.66 870.81 168.6 875.72 168.63"/><polygon class="cls-3" points="875.38 170.34 879.18 175.5 876.63 179.41 874.54 178.74 873.03 181.51 866.79 177.65 869.64 170.15 875.38 170.34"/><rect class="cls-4" x="871.17" y="174.55" width="4.26" height="4.26" transform="translate(1541.26 766.33) rotate(-150)"/><rect class="cls-3" x="871.98" y="175.36" width="2.63" height="2.63" transform="translate(1541.26 766.33) rotate(-150)"/><polygon class="cls-4" points="945.8 174.78 944.43 172.38 949.42 169.09 950.6 171.69 945.8 174.78"/><rect class="cls-65" x="874.81" y="176.83" width="2.74" height="9.26"/><polygon class="cls-66" points="874.13 185.75 874.81 186.09 874.81 176.83 874.13 176.49 874.13 179.58 874.13 185.75"/><polygon class="cls-66" points="871.75 178.24 871.73 175.46 874.13 176.49 874.13 179.58 871.75 178.24"/><polygon class="cls-66" points="877.56 176.83 874.02 175.46 871.73 175.46 874.81 176.83 877.56 176.83"/><g class="cls-67"><polygon class="cls-68" points="956.78 195.27 906.08 195.27 923.85 159 974.55 159 956.78 195.27"/><line class="cls-69" x1="929.41" y1="161.32" x2="913.91" y2="192.95"/><line class="cls-69" x1="933.57" y1="161.32" x2="918.08" y2="192.95"/><line class="cls-69" x1="937.74" y1="161.32" x2="922.24" y2="192.95"/><line class="cls-69" x1="941.91" y1="161.32" x2="926.41" y2="192.95"/><line class="cls-69" x1="946.07" y1="161.32" x2="930.58" y2="192.95"/><line class="cls-69" x1="950.24" y1="161.32" x2="934.75" y2="192.95"/><line class="cls-69" x1="954.41" y1="161.32" x2="938.91" y2="192.95"/><line class="cls-69" x1="958.57" y1="161.32" x2="943.08" y2="192.95"/><line class="cls-69" x1="962.74" y1="161.32" x2="947.25" y2="192.95"/><line class="cls-69" x1="966.91" y1="161.32" x2="951.41" y2="192.95"/><line class="cls-69" x1="924.04" y1="164.92" x2="968.55" y2="164.92"/><line class="cls-69" x1="922" y1="169.09" x2="966.51" y2="169.09"/><line class="cls-69" x1="919.96" y1="173.25" x2="964.47" y2="173.25"/><line class="cls-69" x1="917.92" y1="177.42" x2="962.43" y2="177.42"/><line class="cls-69" x1="915.88" y1="181.59" x2="960.39" y2="181.59"/><line class="cls-69" x1="913.84" y1="185.75" x2="958.35" y2="185.75"/><line class="cls-69" x1="911.8" y1="189.92" x2="956.31" y2="189.92"/><path class="cls-70" d="M954.15,171.88h-.09c-3.42,0-7.54,2.77-9.22,6.19s-.26,6.19,3.16,6.19,7.54-2.77,9.22-6.19l0-.09h-6.09Z"/><path class="cls-71" d="M956.9,170l-3,6.09H960C961.6,172.78,960.22,170.08,956.9,170Z"/><polygon class="cls-72" points="923.47 184.46 918.77 184.46 923.9 173.97 928.6 173.97 923.47 184.46"/><polygon class="cls-72" points="929.43 184.46 924.73 184.46 931.9 169.82 936.6 169.82 929.43 184.46"/><polygon class="cls-72" points="935.39 184.46 930.69 184.46 934.85 175.96 939.55 175.96 935.39 184.46"/></g><path class="cls-58" d="M882.7,60.23s.34,7.2-1.37,12.35c0,0,9.6-6.52,13-12.35Z"/><path class="cls-57" d="M884.41,57.49s.34,7.2-1.37,12.35c0,0,9.6-6.52,13-12.35Z"/><path class="cls-58" d="M916,66.75s5,8.38,10.9,11.32c0,0-4.61-7.13-3.77-11.32Z"/><path class="cls-57" d="M916.23,66s3.83,6.39,8.31,8.63c0,0-3.51-5.43-2.88-8.63Z"/></g></g></svg>