<svg xmlns="http://www.w3.org/2000/svg" viewBox="0 0 2742.93 2721.34"><defs><style>.cls-1{fill:#9b959e;}.cls-2{fill:#c7b3b6;}.cls-3{fill:#544948;}.cls-4{fill:#72635e;}.cls-5{fill:#998990;}.cls-6{fill:#c8af9c;}.cls-7{fill:#76747d;}.cls-8{fill:#998778;}.cls-9{fill:#988474;}.cls-10{fill:#56484d;}.cls-11{fill:#3a373b;}.cls-12{fill:#c7b0a3;}.cls-13{fill:#74757f;}.cls-14{fill:#9a8c91;}.cls-15{fill:#544949;}.cls-16{fill:#9b8576;}.cls-17{fill:#c6af9d;}.cls-18{fill:#97858a;}</style></defs><title>Asset 5</title><g id="Layer_2" data-name="Layer 2"><g id="Layer_1-2" data-name="Layer 1"><polygon class="cls-1" points="1355.38 0 937.12 190.6 1346.37 79.76 1413.62 518.86 1482.44 232.96 1355.38 0"/><polygon class="cls-2" points="1126.64 582.39 937.12 190.6 1346.37 79.76 1413.62 518.86 1126.64 582.39"/><polygon class="cls-3" points="1413.62 931.82 1540.68 582.39 1482.44 232.96 1413.62 518.86 1413.62 931.82"/><polygon class="cls-4" points="937.12 190.6 1021.83 741.22 937.12 1503.62 1074.77 820.64 1413.62 518.86 1126.64 582.39 937.12 190.6"/><polygon class="cls-5" points="607.04 1170.07 937.12 190.6 1021.83 741.22 937.12 1503.62 607.04 1170.07"/><polygon class="cls-6" points="804.21 1374.93 607.04 1170.07 201.19 1858.35 644.1 1313.02 804.21 1374.93"/><polygon class="cls-7" points="201.19 1858.35 937.12 1503.62 804.21 1374.93 644.1 1313.02 201.19 1858.35"/><polygon class="cls-3" points="0 2721.34 201.19 1858.35 412.38 1756.55 291.19 2689.58 0 2721.34"/><polygon class="cls-8" points="775.64 1581.46 412.38 1756.55 291.19 2689.58 775.64 2689.58 775.64 1581.46"/><polygon class="cls-4" points="984.77 1821.29 1021.83 1043.01 937.12 1503.62 775.64 1581.46 775.64 2689.58 984.77 1821.29"/><polygon class="cls-3" points="1413.62 931.82 1413.62 518.86 1074.77 820.64 1019.31 1095.8 984.77 1821.29 1155.83 1756.55 1413.62 931.82"/><polygon class="cls-9" points="775.64 2689.58 998.8 2689.58 984.77 1821.29 775.64 2689.58"/><polygon class="cls-10" points="1290.95 2689.58 1155.83 1756.55 984.77 1821.29 998.8 2689.58 1290.95 2689.58"/><polygon class="cls-11" points="1540.68 582.39 1939.37 766.28 1796.8 965.03 1413.62 931.82 1540.68 582.39"/><polygon class="cls-12" points="1676.49 1170.07 1796.8 965.03 1413.62 931.82 1676.49 1170.07"/><polygon class="cls-3" points="1939.37 766.28 1796.8 965.03 1973.93 965.03 1939.37 766.28"/><polygon class="cls-13" points="1922.09 1223.02 1796.8 965.03 1676.49 1170.07 1922.09 1223.02"/><polygon class="cls-14" points="2194.26 1129.18 1922.09 1223.02 1796.8 965.03 1973.93 965.03 2194.26 1129.18"/><polygon class="cls-11" points="2536.75 2435.37 2194.26 1129.18 1922.09 1223.02 1939.37 2689.58 2742.93 2689.58 2536.75 2435.37"/><polygon class="cls-15" points="1676.49 1170.07 1498.7 2689.58 1939.37 2689.58 1922.09 1223.02 1676.49 1170.07"/><polygon class="cls-16" points="1285.48 1341.75 1413.62 2689.58 1498.7 2689.58 1641.49 1469.21 1285.48 1341.75"/><polygon class="cls-17" points="1155.83 1756.55 1285.48 1341.75 1413.62 2689.58 1290.95 2689.58 1155.83 1756.55"/><polygon class="cls-18" points="1413.62 931.82 1676.49 1170.07 1641.49 1469.21 1285.48 1341.75 1413.62 931.82"/></g></g></svg>