<svg xmlns="http://www.w3.org/2000/svg" viewBox="0 0 659.6 251.97"><defs><style>.cls-1{fill:#4f4c48;}.cls-2{fill:#d1d1cc;}.cls-3{fill:#dbd6cd;}.cls-4{fill:#e7e2e1;}.cls-5,.cls-9{fill:#eee9e4;}.cls-6{fill:#ffda83;}.cls-7{fill:#fab416;}.cls-8{fill:#ffcf4a;}.cls-9{stroke:#ffda83;stroke-miterlimit:10;stroke-width:5px;}</style></defs><title>temple</title><g id="Layer_2" data-name="Layer 2"><g id="Layer_1-2" data-name="Layer 1"><rect class="cls-1" x="468.93" y="123.08" width="159.33" height="86.34" transform="translate(1097.18 332.5) rotate(180)"/><rect class="cls-2" x="454.8" y="128.11" width="18.41" height="72.72"/><rect class="cls-3" x="459.49" y="128.11" width="9.03" height="72.72"/><rect class="cls-4" x="456.08" y="130.05" width="2.12" height="68.13" rx="0.78" ry="0.78"/><rect class="cls-5" x="461" y="130.05" width="2.12" height="68.13" rx="0.78" ry="0.78"/><rect class="cls-5" x="464.75" y="130.05" width="2.12" height="68.13" rx="0.78" ry="0.78"/><rect class="cls-4" x="469.8" y="130.05" width="2.12" height="68.13" rx="0.78" ry="0.78"/><polygon class="cls-6" points="454.8 200.83 452.92 201.95 475.08 201.95 473.2 200.83 454.8 200.83"/><rect class="cls-7" x="452.92" y="201.95" width="22.15" height="1.97"/><rect class="cls-8" x="452.08" y="203.92" width="23.84" height="2.52"/><rect class="cls-8" x="450.39" y="124.11" width="27.22" height="4"/><circle class="cls-8" cx="453.82" cy="128" r="3.43"/><circle class="cls-7" cx="453.82" cy="128" r="2.43"/><circle class="cls-8" cx="474.18" cy="128" r="3.43"/><circle class="cls-8" cx="453.82" cy="128" r="1.29"/><circle class="cls-7" cx="474.18" cy="128" r="2.43"/><circle class="cls-8" cx="474.18" cy="128" r="1.29"/><rect class="cls-2" x="496.64" y="128.11" width="18.41" height="72.72"/><rect class="cls-3" x="501.33" y="128.11" width="9.03" height="72.72"/><rect class="cls-4" x="497.93" y="130.05" width="2.12" height="68.13" rx="0.78" ry="0.78"/><rect class="cls-5" x="502.85" y="130.05" width="2.12" height="68.13" rx="0.78" ry="0.78"/><rect class="cls-5" x="506.6" y="130.05" width="2.12" height="68.13" rx="0.78" ry="0.78"/><rect class="cls-4" x="511.64" y="130.05" width="2.12" height="68.13" rx="0.78" ry="0.78"/><polygon class="cls-6" points="496.64 200.83 494.77 201.95 516.92 201.95 515.05 200.83 496.64 200.83"/><rect class="cls-7" x="494.77" y="201.95" width="22.15" height="1.97"/><rect class="cls-8" x="493.92" y="203.92" width="23.84" height="2.52"/><rect class="cls-8" x="492.24" y="124.11" width="27.22" height="4"/><circle class="cls-8" cx="495.67" cy="128" r="3.43"/><circle class="cls-7" cx="495.67" cy="128" r="2.43"/><circle class="cls-8" cx="516.02" cy="128" r="3.43"/><circle class="cls-8" cx="495.67" cy="128" r="1.29"/><circle class="cls-7" cx="516.02" cy="128" r="2.43"/><circle class="cls-8" cx="516.02" cy="128" r="1.29"/><rect class="cls-2" x="538.49" y="128.11" width="18.41" height="72.72"/><rect class="cls-3" x="543.18" y="128.11" width="9.03" height="72.72"/><rect class="cls-4" x="539.78" y="130.05" width="2.12" height="68.13" rx="0.78" ry="0.78"/><rect class="cls-5" x="544.69" y="130.05" width="2.12" height="68.13" rx="0.78" ry="0.78"/><rect class="cls-5" x="548.44" y="130.05" width="2.12" height="68.13" rx="0.78" ry="0.78"/><rect class="cls-4" x="553.49" y="130.05" width="2.12" height="68.13" rx="0.78" ry="0.78"/><polygon class="cls-6" points="538.49 200.83 536.62 201.95 558.77 201.95 556.9 200.83 538.49 200.83"/><rect class="cls-7" x="536.62" y="201.95" width="22.15" height="1.97"/><rect class="cls-8" x="535.77" y="203.92" width="23.84" height="2.52"/><rect class="cls-8" x="534.09" y="124.11" width="27.22" height="4"/><circle class="cls-8" cx="537.52" cy="128" r="3.43"/><circle class="cls-7" cx="537.52" cy="128" r="2.43"/><circle class="cls-8" cx="557.87" cy="128" r="3.43"/><circle class="cls-8" cx="537.52" cy="128" r="1.29"/><circle class="cls-7" cx="557.87" cy="128" r="2.43"/><circle class="cls-8" cx="557.87" cy="128" r="1.29"/><rect class="cls-2" x="580.34" y="128.11" width="18.41" height="72.72"/><rect class="cls-3" x="585.03" y="128.11" width="9.03" height="72.72"/><rect class="cls-4" x="581.62" y="130.05" width="2.12" height="68.13" rx="0.78" ry="0.78"/><rect class="cls-5" x="586.54" y="130.05" width="2.12" height="68.13" rx="0.78" ry="0.78"/><rect class="cls-5" x="590.29" y="130.05" width="2.12" height="68.13" rx="0.78" ry="0.78"/><rect class="cls-4" x="595.34" y="130.05" width="2.12" height="68.13" rx="0.78" ry="0.78"/><polygon class="cls-6" points="580.34 200.83 578.46 201.95 600.62 201.95 598.74 200.83 580.34 200.83"/><rect class="cls-7" x="578.46" y="201.95" width="22.15" height="1.97"/><rect class="cls-8" x="577.62" y="203.92" width="23.84" height="2.52"/><rect class="cls-8" x="575.93" y="124.11" width="27.22" height="4"/><circle class="cls-8" cx="579.36" cy="128" r="3.43"/><circle class="cls-7" cx="579.36" cy="128" r="2.43"/><circle class="cls-8" cx="599.72" cy="128" r="3.43"/><circle class="cls-8" cx="579.36" cy="128" r="1.29"/><circle class="cls-7" cx="599.72" cy="128" r="2.43"/><circle class="cls-8" cx="599.72" cy="128" r="1.29"/><rect class="cls-2" x="622.18" y="128.11" width="18.41" height="72.72"/><rect class="cls-3" x="626.87" y="128.11" width="9.03" height="72.72"/><rect class="cls-4" x="623.47" y="130.05" width="2.12" height="68.13" rx="0.78" ry="0.78"/><rect class="cls-5" x="628.39" y="130.05" width="2.12" height="68.13" rx="0.78" ry="0.78"/><rect class="cls-5" x="632.14" y="130.05" width="2.12" height="68.13" rx="0.78" ry="0.78"/><rect class="cls-4" x="637.19" y="130.05" width="2.12" height="68.13" rx="0.78" ry="0.78"/><polygon class="cls-6" points="622.18 200.83 620.31 201.95 642.47 201.95 640.59 200.83 622.18 200.83"/><rect class="cls-7" x="620.31" y="201.95" width="22.15" height="1.97"/><rect class="cls-8" x="619.47" y="203.92" width="23.84" height="2.52"/><rect class="cls-8" x="617.78" y="124.11" width="27.22" height="4"/><circle class="cls-8" cx="621.21" cy="128" r="3.43"/><circle class="cls-7" cx="621.21" cy="128" r="2.43"/><circle class="cls-8" cx="641.57" cy="128" r="3.43"/><circle class="cls-8" cx="621.21" cy="128" r="1.29"/><circle class="cls-7" cx="641.57" cy="128" r="2.43"/><circle class="cls-8" cx="641.57" cy="128" r="1.29"/><rect class="cls-3" x="447.68" y="118.2" width="199.25" height="5.91"/><rect class="cls-8" x="447.68" y="115.54" width="199.25" height="1.74"/><rect class="cls-6" x="446.8" y="117.28" width="201" height="0.92"/><rect class="cls-3" x="447.68" y="207.36" width="199.25" height="5.91"/><rect class="cls-6" x="446.8" y="206.44" width="201" height="0.92"/><rect class="cls-3" x="445" y="214.2" width="204.62" height="5.91"/><rect class="cls-6" x="444.1" y="213.28" width="206.41" height="0.92"/><rect class="cls-3" x="442.4" y="221.03" width="209.81" height="5.91"/><rect class="cls-6" x="441.48" y="220.11" width="211.66" height="0.92"/><polygon class="cls-3" points="464.15 107.38 547.69 85.91 630.6 107.38 464.15 107.38"/><path class="cls-6" d="M547.69,88.49,611,104.88H483.92l63.77-16.39m0-5.16L444.38,109.88H650.23L547.69,83.33Z"/><polygon class="cls-5" points="464.54 113.91 548.08 92.44 630.99 113.91 464.54 113.91"/><path class="cls-6" d="M548.08,95l63.29,16.39H484.31L548.08,95m0-5.16L444.77,116.41H650.62L548.08,89.85Z"/><rect class="cls-6" x="446.8" y="114.62" width="201" height="0.92"/><rect class="cls-6" x="444.38" y="108.77" width="205.85" height="0.92"/><polygon class="cls-3" points="445.21 109.69 447.68 114.62 646.93 114.62 649.32 109.69 445.21 109.69"/><polygon class="cls-9" points="440.38 104.45 444.38 108.77 448.73 108.77 547.69 83.33 645.92 108.77 650.23 108.77 654.73 104.34 547.69 75.98 440.38 104.45"/><rect class="cls-1" x="33.2" y="123.08" width="159.33" height="86.34" transform="translate(225.73 332.5) rotate(180)"/><rect class="cls-2" x="19.07" y="128.11" width="18.41" height="72.72"/><rect class="cls-3" x="23.76" y="128.11" width="9.03" height="72.72"/><rect class="cls-4" x="20.36" y="130.05" width="2.12" height="68.13" rx="0.78" ry="0.78"/><rect class="cls-5" x="25.28" y="130.05" width="2.12" height="68.13" rx="0.78" ry="0.78"/><rect class="cls-5" x="29.02" y="130.05" width="2.12" height="68.13" rx="0.78" ry="0.78"/><rect class="cls-4" x="34.07" y="130.05" width="2.12" height="68.13" rx="0.78" ry="0.78"/><polygon class="cls-6" points="19.07 200.83 17.2 201.95 39.35 201.95 37.48 200.83 19.07 200.83"/><rect class="cls-7" x="17.2" y="201.95" width="22.15" height="1.97"/><rect class="cls-8" x="16.35" y="203.92" width="23.84" height="2.52"/><rect class="cls-8" x="14.67" y="124.11" width="27.22" height="4"/><circle class="cls-8" cx="18.1" cy="128" r="3.43"/><circle class="cls-7" cx="18.1" cy="128" r="2.43"/><circle class="cls-8" cx="38.45" cy="128" r="3.43"/><circle class="cls-8" cx="18.1" cy="128" r="1.29"/><circle class="cls-7" cx="38.45" cy="128" r="2.43"/><circle class="cls-8" cx="38.45" cy="128" r="1.29"/><rect class="cls-2" x="60.92" y="128.11" width="18.41" height="72.72"/><rect class="cls-3" x="65.61" y="128.11" width="9.03" height="72.72"/><rect class="cls-4" x="62.2" y="130.05" width="2.12" height="68.13" rx="0.78" ry="0.78"/><rect class="cls-5" x="67.12" y="130.05" width="2.12" height="68.13" rx="0.78" ry="0.78"/><rect class="cls-5" x="70.87" y="130.05" width="2.12" height="68.13" rx="0.78" ry="0.78"/><rect class="cls-4" x="75.92" y="130.05" width="2.12" height="68.13" rx="0.78" ry="0.78"/><polygon class="cls-6" points="60.92 200.83 59.05 201.95 81.2 201.95 79.33 200.83 60.92 200.83"/><rect class="cls-7" x="59.04" y="201.95" width="22.15" height="1.97"/><rect class="cls-8" x="58.2" y="203.92" width="23.84" height="2.52"/><rect class="cls-8" x="56.51" y="124.11" width="27.22" height="4"/><circle class="cls-8" cx="59.94" cy="128" r="3.43"/><circle class="cls-7" cx="59.94" cy="128" r="2.43"/><circle class="cls-8" cx="80.3" cy="128" r="3.43"/><circle class="cls-8" cx="59.94" cy="128" r="1.29"/><circle class="cls-7" cx="80.3" cy="128" r="2.43"/><circle class="cls-8" cx="80.3" cy="128" r="1.29"/><rect class="cls-2" x="102.77" y="128.11" width="18.41" height="72.72"/><rect class="cls-3" x="107.46" y="128.11" width="9.03" height="72.72"/><rect class="cls-4" x="104.05" y="130.05" width="2.12" height="68.13" rx="0.78" ry="0.78"/><rect class="cls-5" x="108.97" y="130.05" width="2.12" height="68.13" rx="0.78" ry="0.78"/><rect class="cls-5" x="112.72" y="130.05" width="2.12" height="68.13" rx="0.78" ry="0.78"/><rect class="cls-4" x="117.77" y="130.05" width="2.12" height="68.13" rx="0.78" ry="0.78"/><polygon class="cls-6" points="102.77 200.83 100.89 201.95 123.05 201.95 121.17 200.83 102.77 200.83"/><rect class="cls-7" x="100.89" y="201.95" width="22.15" height="1.97"/><rect class="cls-8" x="100.05" y="203.92" width="23.84" height="2.52"/><rect class="cls-8" x="98.36" y="124.11" width="27.22" height="4"/><circle class="cls-8" cx="101.79" cy="128" r="3.43"/><circle class="cls-7" cx="101.79" cy="128" r="2.43"/><circle class="cls-8" cx="122.15" cy="128" r="3.43"/><circle class="cls-8" cx="101.79" cy="128" r="1.29"/><circle class="cls-7" cx="122.15" cy="128" r="2.43"/><circle class="cls-8" cx="122.15" cy="128" r="1.29"/><rect class="cls-2" x="144.61" y="128.11" width="18.41" height="72.72"/><rect class="cls-3" x="149.3" y="128.11" width="9.03" height="72.72"/><rect class="cls-4" x="145.9" y="130.05" width="2.12" height="68.13" rx="0.78" ry="0.78"/><rect class="cls-5" x="150.82" y="130.05" width="2.12" height="68.13" rx="0.78" ry="0.78"/><rect class="cls-5" x="154.57" y="130.05" width="2.12" height="68.13" rx="0.78" ry="0.78"/><rect class="cls-4" x="159.61" y="130.05" width="2.12" height="68.13" rx="0.78" ry="0.78"/><polygon class="cls-6" points="144.61 200.83 142.74 201.95 164.89 201.95 163.02 200.83 144.61 200.83"/><rect class="cls-7" x="142.74" y="201.95" width="22.15" height="1.97"/><rect class="cls-8" x="141.89" y="203.92" width="23.84" height="2.52"/><rect class="cls-8" x="140.21" y="124.11" width="27.22" height="4"/><circle class="cls-8" cx="143.64" cy="128" r="3.43"/><circle class="cls-7" cx="143.64" cy="128" r="2.43"/><circle class="cls-8" cx="163.99" cy="128" r="3.43"/><circle class="cls-8" cx="143.64" cy="128" r="1.29"/><circle class="cls-7" cx="163.99" cy="128" r="2.43"/><circle class="cls-8" cx="163.99" cy="128" r="1.29"/><rect class="cls-2" x="186.46" y="128.11" width="18.41" height="72.72"/><rect class="cls-3" x="191.15" y="128.11" width="9.03" height="72.72"/><rect class="cls-4" x="187.75" y="130.05" width="2.12" height="68.13" rx="0.78" ry="0.78"/><rect class="cls-5" x="192.66" y="130.05" width="2.12" height="68.13" rx="0.78" ry="0.78"/><rect class="cls-5" x="196.41" y="130.05" width="2.12" height="68.13" rx="0.78" ry="0.78"/><rect class="cls-4" x="201.46" y="130.05" width="2.12" height="68.13" rx="0.78" ry="0.78"/><polygon class="cls-6" points="186.46 200.83 184.59 201.95 206.74 201.95 204.87 200.83 186.46 200.83"/><rect class="cls-7" x="184.59" y="201.95" width="22.15" height="1.97"/><rect class="cls-8" x="183.74" y="203.92" width="23.84" height="2.52"/><rect class="cls-8" x="182.05" y="124.11" width="27.22" height="4"/><circle class="cls-8" cx="185.49" cy="128" r="3.43"/><circle class="cls-7" cx="185.49" cy="128" r="2.43"/><circle class="cls-8" cx="205.84" cy="128" r="3.43"/><circle class="cls-8" cx="185.49" cy="128" r="1.29"/><circle class="cls-7" cx="205.84" cy="128" r="2.43"/><circle class="cls-8" cx="205.84" cy="128" r="1.29"/><rect class="cls-3" x="11.96" y="118.2" width="199.25" height="5.91"/><rect class="cls-8" x="11.96" y="115.54" width="199.25" height="1.74"/><rect class="cls-6" x="11.08" y="117.28" width="201" height="0.92"/><rect class="cls-3" x="11.96" y="207.36" width="199.25" height="5.91"/><rect class="cls-6" x="11.08" y="206.44" width="201" height="0.92"/><rect class="cls-3" x="9.27" y="214.2" width="204.62" height="5.91"/><rect class="cls-6" x="8.37" y="213.28" width="206.41" height="0.92"/><rect class="cls-3" x="6.67" y="221.03" width="209.81" height="5.91"/><rect class="cls-6" x="5.75" y="220.11" width="211.66" height="0.92"/><polygon class="cls-3" points="28.43 107.38 111.97 85.91 194.88 107.38 28.43 107.38"/><path class="cls-6" d="M112,88.49l63.29,16.39H48.19L112,88.49m0-5.16L8.66,109.88H214.5L112,83.33Z"/><polygon class="cls-5" points="28.81 113.91 112.36 92.44 195.27 113.91 28.81 113.91"/><path class="cls-6" d="M112.35,95l63.29,16.39H48.58L112.35,95m0-5.16L9,116.41H214.89L112.36,89.85Z"/><rect class="cls-6" x="11.08" y="114.62" width="201" height="0.92"/><rect class="cls-6" x="8.66" y="108.77" width="205.85" height="0.92"/><polygon class="cls-3" points="9.48 109.69 11.96 114.62 211.21 114.62 213.6 109.69 9.48 109.69"/><polygon class="cls-9" points="4.66 104.45 8.66 108.77 13 108.77 111.97 83.33 210.19 108.77 214.5 108.77 219 104.34 111.97 75.98 4.66 104.45"/><rect class="cls-1" x="198.68" y="80.39" width="263.18" height="142.63" transform="translate(660.55 303.4) rotate(180)"/><rect class="cls-2" x="175.34" y="88.7" width="30.4" height="120.12"/><rect class="cls-3" x="183.09" y="88.7" width="14.91" height="120.12"/><rect class="cls-4" x="177.47" y="91.91" width="3.51" height="112.55" rx="1.29" ry="1.29"/><rect class="cls-5" x="185.59" y="91.91" width="3.51" height="112.55" rx="1.29" ry="1.29"/><rect class="cls-5" x="191.78" y="91.91" width="3.51" height="112.55" rx="1.29" ry="1.29"/><rect class="cls-4" x="200.12" y="91.91" width="3.51" height="112.55" rx="1.29" ry="1.29"/><polygon class="cls-6" points="175.34 208.82 172.25 210.68 208.84 210.68 205.75 208.82 175.34 208.82"/><rect class="cls-7" x="172.25" y="210.68" width="36.6" height="3.25"/><rect class="cls-8" x="170.85" y="213.93" width="39.39" height="4.16"/><rect class="cls-8" x="168.07" y="82.1" width="44.96" height="6.6"/><circle class="cls-8" cx="173.73" cy="88.51" r="5.67"/><circle class="cls-7" cx="173.73" cy="88.51" r="4.01"/><circle class="cls-8" cx="207.36" cy="88.51" r="5.67"/><circle class="cls-8" cx="173.73" cy="88.51" r="2.13"/><circle class="cls-7" cx="207.36" cy="88.51" r="4.01"/><circle class="cls-8" cx="207.36" cy="88.51" r="2.13"/><rect class="cls-2" x="244.47" y="88.7" width="30.4" height="120.12"/><rect class="cls-3" x="252.21" y="88.7" width="14.91" height="120.12"/><rect class="cls-4" x="246.59" y="91.91" width="3.51" height="112.55" rx="1.29" ry="1.29"/><rect class="cls-5" x="254.72" y="91.91" width="3.51" height="112.55" rx="1.29" ry="1.29"/><rect class="cls-5" x="260.91" y="91.91" width="3.51" height="112.55" rx="1.29" ry="1.29"/><rect class="cls-4" x="269.25" y="91.91" width="3.51" height="112.55" rx="1.29" ry="1.29"/><polygon class="cls-6" points="244.47 208.82 241.37 210.68 277.97 210.68 274.87 208.82 244.47 208.82"/><rect class="cls-7" x="241.37" y="210.68" width="36.6" height="3.25"/><rect class="cls-8" x="239.98" y="213.93" width="39.39" height="4.16"/><rect class="cls-8" x="237.19" y="82.1" width="44.96" height="6.6"/><circle class="cls-8" cx="242.86" cy="88.51" r="5.67"/><circle class="cls-7" cx="242.86" cy="88.51" r="4.01"/><circle class="cls-8" cx="276.48" cy="88.51" r="5.67"/><circle class="cls-8" cx="242.86" cy="88.51" r="2.13"/><circle class="cls-7" cx="276.48" cy="88.51" r="4.01"/><circle class="cls-8" cx="276.48" cy="88.51" r="2.13"/><rect class="cls-2" x="313.59" y="88.7" width="30.4" height="120.12"/><rect class="cls-3" x="321.34" y="88.7" width="14.91" height="120.12"/><rect class="cls-4" x="315.72" y="91.91" width="3.51" height="112.55" rx="1.29" ry="1.29"/><rect class="cls-5" x="323.84" y="91.91" width="3.51" height="112.55" rx="1.29" ry="1.29"/><rect class="cls-5" x="330.03" y="91.91" width="3.51" height="112.55" rx="1.29" ry="1.29"/><rect class="cls-4" x="338.37" y="91.91" width="3.51" height="112.55" rx="1.29" ry="1.29"/><polygon class="cls-6" points="313.59 208.82 310.5 210.68 347.09 210.68 344 208.82 313.59 208.82"/><rect class="cls-7" x="310.5" y="210.68" width="36.6" height="3.25"/><rect class="cls-8" x="309.1" y="213.93" width="39.39" height="4.16"/><rect class="cls-8" x="306.32" y="82.1" width="44.96" height="6.6"/><circle class="cls-8" cx="311.98" cy="88.51" r="5.67"/><circle class="cls-7" cx="311.98" cy="88.51" r="4.01"/><circle class="cls-8" cx="345.61" cy="88.51" r="5.67"/><circle class="cls-8" cx="311.98" cy="88.51" r="2.13"/><circle class="cls-7" cx="345.61" cy="88.51" r="4.01"/><circle class="cls-8" cx="345.61" cy="88.51" r="2.13"/><rect class="cls-2" x="382.72" y="88.7" width="30.4" height="120.12"/><rect class="cls-3" x="390.46" y="88.7" width="14.91" height="120.12"/><rect class="cls-4" x="384.84" y="91.91" width="3.51" height="112.55" rx="1.29" ry="1.29"/><rect class="cls-5" x="392.97" y="91.91" width="3.51" height="112.55" rx="1.29" ry="1.29"/><rect class="cls-5" x="399.16" y="91.91" width="3.51" height="112.55" rx="1.29" ry="1.29"/><rect class="cls-4" x="407.5" y="91.91" width="3.51" height="112.55" rx="1.29" ry="1.29"/><polygon class="cls-6" points="382.72 208.82 379.62 210.68 416.22 210.68 413.12 208.82 382.72 208.82"/><rect class="cls-7" x="379.62" y="210.68" width="36.6" height="3.25"/><rect class="cls-8" x="378.23" y="213.93" width="39.39" height="4.16"/><rect class="cls-8" x="375.44" y="82.1" width="44.96" height="6.6"/><circle class="cls-8" cx="381.11" cy="88.51" r="5.67"/><circle class="cls-7" cx="381.11" cy="88.51" r="4.01"/><circle class="cls-8" cx="414.73" cy="88.51" r="5.67"/><circle class="cls-8" cx="381.11" cy="88.51" r="2.13"/><circle class="cls-7" cx="414.73" cy="88.51" r="4.01"/><circle class="cls-8" cx="414.73" cy="88.51" r="2.13"/><rect class="cls-2" x="451.84" y="88.7" width="30.4" height="120.12"/><rect class="cls-3" x="459.59" y="88.7" width="14.91" height="120.12"/><rect class="cls-4" x="453.97" y="91.91" width="3.51" height="112.55" rx="1.29" ry="1.29"/><rect class="cls-5" x="462.09" y="91.91" width="3.51" height="112.55" rx="1.29" ry="1.29"/><rect class="cls-5" x="468.28" y="91.91" width="3.51" height="112.55" rx="1.29" ry="1.29"/><rect class="cls-4" x="476.62" y="91.91" width="3.51" height="112.55" rx="1.29" ry="1.29"/><polygon class="cls-6" points="451.84 208.82 448.75 210.68 485.34 210.68 482.25 208.82 451.84 208.82"/><rect class="cls-7" x="448.75" y="210.68" width="36.6" height="3.25"/><rect class="cls-8" x="447.35" y="213.93" width="39.39" height="4.16"/><rect class="cls-8" x="444.57" y="82.1" width="44.96" height="6.6"/><circle class="cls-8" cx="450.23" cy="88.51" r="5.67"/><circle class="cls-7" cx="450.23" cy="88.51" r="4.01"/><circle class="cls-8" cx="483.86" cy="88.51" r="5.67"/><circle class="cls-8" cx="450.23" cy="88.51" r="2.13"/><circle class="cls-7" cx="483.86" cy="88.51" r="4.01"/><circle class="cls-8" cx="483.86" cy="88.51" r="2.13"/><rect class="cls-3" x="163.59" y="72.33" width="329.13" height="9.77"/><rect class="cls-8" x="163.59" y="67.94" width="329.13" height="2.87"/><rect class="cls-6" x="162.14" y="70.81" width="332.03" height="1.52"/><rect class="cls-3" x="163.59" y="219.61" width="329.13" height="9.77"/><rect class="cls-6" x="162.14" y="218.09" width="332.03" height="1.52"/><rect class="cls-3" x="159.16" y="230.91" width="337.99" height="9.77"/><rect class="cls-6" x="157.67" y="229.38" width="340.97" height="1.52"/><rect class="cls-3" x="154.86" y="242.2" width="346.58" height="9.77"/><rect class="cls-6" x="153.34" y="240.68" width="349.63" height="1.52"/><polygon class="cls-3" points="177.91 56.09 328.79 17.31 478.54 56.09 177.91 56.09"/><path class="cls-6" d="M328.79,19.89l130.13,33.7H197.68l131.11-33.7m0-5.16L158.14,58.59h340L328.79,14.73Z"/><polygon class="cls-5" points="178.55 66.87 329.43 28.09 479.18 66.87 178.55 66.87"/><path class="cls-6" d="M329.43,30.67l130.13,33.7H198.32l131.11-33.7m0-5.16L158.78,69.37h340L329.44,25.51Z"/><rect class="cls-6" x="162.14" y="66.41" width="332.03" height="1.52"/><rect class="cls-6" x="158.14" y="56.75" width="340.03" height="1.52"/><polygon class="cls-3" points="159.5 58.27 163.59 66.41 492.72 66.41 496.67 58.27 159.5 58.27"/><polygon class="cls-9" points="151.53 49.61 158.14 56.75 165.32 56.75 328.79 14.73 491.04 56.75 498.17 56.75 505.59 49.44 328.79 2.59 151.53 49.61"/></g></g></svg>